<svg id="圖層_5" data-name="圖層 5" xmlns="http://www.w3.org/2000/svg" viewBox="0 0 914.94 915.21"><defs><style>.cls-1{fill:#9f2856;}.cls-2{fill:#fe3f8a;}.cls-3{fill:#030202;}.cls-4{fill:#595356;}.cls-5{fill:#dab686;}.cls-6{fill:#b9996f;}.cls-7{fill:#553238;}.cls-8{fill:#564632;}.cls-9{fill:#d8b485;}.cls-10{fill:#a9b0b1;}.cls-11{fill:#fa3e88;}.cls-12{fill:#a4acad;}.cls-13{fill:#757d7e;}.cls-14{fill:#798283;}.cls-15{fill:#8e9697;}.cls-16{fill:#020201;}.cls-17{fill:#020202;}.cls-18{fill:#030302;}.cls-19{fill:#030201;}.cls-20{fill:#97d985;}.cls-21{fill:#60b632;}.cls-22{fill:#86aada;}.cls-23{fill:#4c80d8;}.cls-24{fill:#da85d6;}.cls-25{fill:#d84cd1;}.cls-26{fill:#d9da85;}.cls-27{fill:#b7b132;}.cls-28{fill:#d88584;}.cls-29{fill:#b84333;}</style></defs><path class="cls-1" d="M934.85,998c-4.11-.52-8.21-1.19-12.34-1.53a457.49,457.49,0,0,1-374.7-255.93C526.33,696.48,512,650.16,506,601.46,489.93,470.08,522.7,352.14,606.46,249.64c67.12-82.13,153.62-134,257.41-156.7a452.53,452.53,0,0,1,137.68-8.22c152.87,13.69,290.66,105.65,362.25,241.4a454.18,454.18,0,0,1,47.81,144.18c2.19,14.35,3.07,28.89,4.59,43.34a20.89,20.89,0,0,0,.8,3.06v49.14a15.34,15.34,0,0,0-.85,3A454.63,454.63,0,0,1,1402.29,656C1352.9,844.4,1190.11,980.89,996.34,996.48c-4.41.35-8.79,1-13.19,1.52ZM1383.1,540.27c-.23-233.95-189-421.92-420.44-423.49C725.79,115.17,537.06,306,535.76,537.61,534.42,774.21,725.2,963,957,964.1,1193,965.27,1383.21,774.44,1383.1,540.27Z" transform="translate(-502.06 -82.79)"/><path class="cls-2" d="M1383.1,540.27c.11,234.17-190.11,425-426.07,423.83C725.2,963,534.42,774.21,535.76,537.61c1.3-231.58,190-422.44,426.9-420.83C1194.14,118.35,1382.87,306.32,1383.1,540.27ZM1148.54,397l-1.07-.57c-4.45-3.18-8.76-6.55-13.36-9.48-16.65-10.61-34.46-18.9-52.81-26.09-1.6-3.43-3.21-6.85-5-10.65,10.74-17.49,13.86-31.6,8.39-49.36-2.79-9.06-7.41-17.17-15.77-22.48h0l-.89-.81h0l-.92-.81v0l-1-.62c-7.8-4.66-15.27-10-23.48-13.8-14.21-6.56-28.47-12.82-41.58-21.61-10.61-7.12-24.24-1.13-28,11.06a163.94,163.94,0,0,1-8,20.87c-3.72,8-8.4,15.65-12.21,23.66-6.63,14-7,28,.53,41.85a15.42,15.42,0,0,1,.85,2.75c-1.49.12-2.61.24-3.74.28A337.47,337.47,0,0,0,852.35,360c-43.64,15.34-82.5,38.39-114.65,72-33.61,35.11-54.9,76.15-58.76,125.28-2.54,32.25,3.51,62.94,17.46,92,20.15,42,52.51,72.43,91.73,96.29l1.11.77a1.07,1.07,0,0,0,.39.22l2.8,1.63,0,0,1.62,1,1.06.59,0,0,1.7.91,0,0,1.72.9,0,0c6.75,3.67,13.33,7.73,20.29,11,38.53,17.81,79.24,26.54,121.49,28.83a307.77,307.77,0,0,0,93-8.9,461.69,461.69,0,0,0,48.45-15.49A94.87,94.87,0,0,0,1122,737.73c4.25-5.21,8-10.82,12-16.24.51.65,1.07,1.28,1.55,2,10,14.38,19.93,28.86,30.18,43.09,2.4,3.33,6,5.8,9,8.67l1.45,1c6.63,6.79,14.86,7.54,23.36,5.36,8.09-2.09,14.34-7.08,16.41-15.46,1-4.07.62-8.64.16-12.9-1.68-15.22-3-30.52-5.67-45.57-4.73-26.66-14-52-24.49-76.87-4.22-10-9.2-19.61-13.57-29.52-7.32-16.55-14.4-33.21-21.63-49.81-6.44-14.77-13-29.52-19.09-43.52,7.65-5.68,15.5-10.49,22.12-16.63,22.25-20.6,26.86-51.79,11.35-76.76-3.45-5.54-8.88-9.85-13.39-14.73l0,0-.91-.82,0,0-1.39-1.2-.15.17.12-.19Z" transform="translate(-502.06 -82.79)"/><path class="cls-3" d="M1081.3,360.9c18.35,7.19,36.16,15.48,52.81,26.09,4.6,2.93,8.91,6.3,13.36,9.48l1.08.58.9.74-.12.19.15-.17,1.39,1.2,0,0,.91.82,0,0a22.2,22.2,0,0,0,1.83,3.14c8.63,10.59,13.94,22.53,14.21,36.32.42,22.09-9.15,39.44-26.18,52.84-5.15,4.06-11,7.17-16.74,10.81q8.43,19.26,16.89,38.59c14.66,33.57,29.53,67.06,43.9,100.76a277.93,277.93,0,0,1,18.81,64.37c2.35,14.43,4,29,5.6,43.54s-3.73,22.65-16,26.62c-6.09,2-12,.65-17.9-.58-.48-.33-1-.66-1.45-1-3-2.87-6.65-5.34-9-8.67-10.25-14.23-20.15-28.71-30.18-43.09-.48-.68-1-1.31-1.55-2-1.43-2.75-2.85-5.51-4-7.8-6,8-11.05,15.95-17.27,22.92-15.65,17.55-36.23,27.1-58.35,33.3-16.78,4.7-33.78,8.81-50.91,12A251.35,251.35,0,0,1,962,786.77,360.09,360.09,0,0,1,892.92,782c-26.1-4.53-51.39-11.65-75.64-22.39-6.28-2.78-12.58-5.49-18.88-8.24l0,0-1.72-.9,0,0-1.7-.91,0,0-1.07-.59-1.61-1,0,0-2.8-1.63a1.07,1.07,0,0,1-.39-.22l-1.11-.77c-39.22-23.86-71.58-54.33-91.73-96.29-13.95-29.06-20-59.75-17.46-92C682.8,508.1,704.09,467.06,737.7,432c32.15-33.57,71-56.62,114.65-72a337.47,337.47,0,0,1,98.14-18.72c1.13,0,2.25-.16,3.74-.28a15.42,15.42,0,0,0-.85-2.75c-7.52-13.86-7.16-27.89-.53-41.85,3.81-8,8.49-15.61,12.21-23.66a163.94,163.94,0,0,0,8-20.87c3.73-12.19,17.36-18.18,28-11.06,13.11,8.79,27.37,15,41.58,21.61,8.21,3.78,15.68,9.14,23.49,13.8l1,.62v0l.92.81h0l.89.81h0a28.8,28.8,0,0,0,1.28,2.89c2.28,4,5.15,7.81,6.83,12.06,6.43,16.27,4.42,32.05-4.1,47-2.37,4.16-4.36,7.64.2,11.5a7.24,7.24,0,0,1,1.85,3.75C1075.82,359,1078.09,360.47,1081.3,360.9ZM1039,574.35l.81,1c.68.7,1.23,1.71,2.05,2.07,13.42,5.91,26.87,11.73,41,17.9a18.48,18.48,0,0,0-.32-2.79c-5.24-15.44-10.46-30.89-15.8-46.3-1.69-4.85-3.71-9.58-5.58-14.36-.49-2-1-4.05-1.66-6.88-5.94,3.69-11.35,6.29-15.81,10a70,70,0,0,0-13.45,14.24c-5.65,8.45-1.25,20.63,7.92,24.26l0,0,.83.9Zm34.82-171.21c-.25-.57-.49-1.15-.73-1.72q-7.81-20.22-15.63-40.43c-1-2.59-2.78-3.06-5.43-2.21-12,3.87-24.11,7.62-36.2,11.33-2.84.87-3.48,2.48-2.45,5.1q8.33,21.17,16.62,42.33l.72,1.69c.26.85.53,1.69.79,2.54.5,1.6.68,3.43,1.6,4.72.64.91,2.5,1.8,3.47,1.51q19.79-5.88,39.44-12.25a3.87,3.87,0,0,0,1.79-3.37c-.62-2.39-2-4.58-3-6.86ZM1097,438.67l-1.11-2.47c-.65-1.85-1.36-3.67-1.94-5.53-.86-2.75-2.29-3.16-5.1-2.24-13.89,4.51-27.88,8.74-41.83,13.1-4.91,1.53-9.79,3.16-15,4.84,1.86,4.87,3.49,9.16,5.12,13.45l2.79,1.69c18.63-5.72,37.25-11.48,55.9-17.15C1099.89,443.11,1098.43,440.94,1097,438.67ZM995,378.58a15.31,15.31,0,0,1-.19-3.36c.76-4.73-2.31-6-5.92-7.44-4.67-1.88-9.57-3.8-13.45-6.88-5-3.94-10.43-4.57-16.06-4.14-15.86,1.21-31.78,2.16-47.48,4.5a290.31,290.31,0,0,0-69.13,19.62c-42.35,17.7-78.95,43.14-107.23,79.69-22.86,29.54-36.22,62.9-38.71,100.31a159.87,159.87,0,0,0,4.88,49.8c8,31.73,24.36,58.78,47,82.14A234.93,234.93,0,0,0,824.5,744.9c10.26,4.47,21,7.78,31.54,11.62a4.67,4.67,0,0,0,1.1.62c15.21,3.44,30.29,7.78,45.68,10a315.66,315.66,0,0,0,48,3.33,387.15,387.15,0,0,0,49.12-4.05c24.88-3.42,49.13-9.87,72-20.42,22.44-10.36,38.18-27.14,44.72-51.52a13.85,13.85,0,0,0-.15-7.79q-11.09-30.93-22.73-61.68a17.42,17.42,0,0,0-5.15-7.26c-9-7-19.44-11.16-30.21-14.69-13.06-4.29-25.48-9.9-35.85-19.26-5.64-5.09-10.23-10.93-12.12-18.44-3.17-12.64,1.68-22.94,9.88-32.08,8.61-9.59,19.42-16.17,30.7-22.13,1.21-.64,2.83-2.77,2.55-3.67-3.12-10-6.58-19.93-9.89-29.68-2,0-3.41,0-4.81,0-8.51-.12-15-3.64-18.52-11.58a105,105,0,0,1-5.46-14.59c-.77-2.82-1.39-6.9,0-8.89,4.14-5.74,1.29-10.49-.64-15.58-.4-1.06-.88-2.08-1.3-3.13Zm195.5,357.19.32,0c-.58-3.46-1.08-6.94-1.75-10.38-2.84-14.57-5.43-29.19-8.69-43.65-3.35-14.87-9.75-28.67-15.83-42.59-7.27-16.62-14-33.5-21.15-50.15-10.14-23.43-20.5-46.76-30.79-70.13-7.81-17.71-15.7-35.39-23.4-53.14-1-2.25-2.13-2.71-4.2-2.06-7.21,2.23-14.43,4.42-21.63,6.67-2.09.66-3.64,1.61-2.27,4.28a32.79,32.79,0,0,1,1.41,4.37c6.53,18.82,13.15,37.6,19.57,56.45,6,17.53,11.65,35.16,17.64,52.68,6.44,18.85,13.28,37.56,19.59,56.45,8,24.05,17,47.72,30.7,69.15,10.12,15.84,21.39,30.95,32.4,46.21,1,1.44,4.31,2.69,5.7,2.09,1.87-.82,3.25-3.37,4.19-5.47.55-1.22-.16-3-.3-4.54Q1191.26,743.88,1190.51,735.77ZM991,255.93c-1.63,4.59-3.13,10.18-5.56,15.32-4.58,9.68-9.78,19.06-14.59,28.63-5.86,11.65-6.34,23.09,1.07,34.45,7.81,12,19.54,17.87,32.59,21.88a4.36,4.36,0,0,0,2.44-.16c11.54-3.62,22.89-8.22,34.68-10.65,9.38-1.93,13.36-7.85,16.74-15.34.17-.39.33-.78.49-1.17,7.78-19,2.52-39.06-16.88-48.5C1025.13,272.21,1008.23,264.21,991,255.93Zm94.79,124.82c-.17.93-.32,1.21-.24,1.41,3.59,9.46,7.16,18.92,10.87,28.33a4.4,4.4,0,0,0,2.44,2c6.69,2.51,10.85,7.3,13.08,14,.8,2.41,1.7,4.78,2.66,7.12,4.15,10.22,2.06,17-7,23.25-.86.59-1.79,2.41-1.48,3.15,3.8,9,7.82,18,11.77,26.92,7.31-2.62,13.33-7,19.72-14.06,13.89-15.42,15.92-38.48,4.5-55.54a45,45,0,0,0-10-10.8C1118,395.87,1102.3,387.87,1085.75,380.75Z" transform="translate(-502.06 -82.79)"/><path class="cls-4" d="M1176.18,776.19c5.93,1.23,11.81,2.55,17.9.58,12.25-4,17.52-12.22,16-26.62s-3.25-29.11-5.6-43.54a277.93,277.93,0,0,0-18.81-64.37c-14.37-33.7-29.24-67.19-43.9-100.76q-8.45-19.32-16.89-38.59c5.7-3.64,11.59-6.75,16.74-10.81,17-13.4,26.6-30.75,26.18-52.84-.27-13.79-5.58-25.73-14.21-36.32a22.2,22.2,0,0,1-1.83-3.14c4.51,4.88,9.94,9.19,13.39,14.73,15.51,25,10.9,56.16-11.35,76.76-6.62,6.14-14.47,11-22.12,16.63,6.14,14,12.65,28.75,19.09,43.52,7.23,16.6,14.31,33.26,21.63,49.81,4.37,9.91,9.35,19.55,13.57,29.52,10.53,24.86,19.76,50.21,24.49,76.87,2.67,15,4,30.35,5.67,45.57.46,4.26.84,8.83-.16,12.9-2.07,8.38-8.32,13.37-16.41,15.46C1191,783.73,1182.81,783,1176.18,776.19Z" transform="translate(-502.06 -82.79)"/><path class="cls-4" d="M798.4,751.41c6.3,2.75,12.6,5.46,18.88,8.24,24.25,10.74,49.54,17.86,75.64,22.39A360.09,360.09,0,0,0,962,786.77a251.35,251.35,0,0,0,41.41-4.82c17.13-3.23,34.13-7.34,50.91-12,22.12-6.2,42.7-15.75,58.35-33.3,6.22-7,11.32-14.94,17.27-22.92,1.19,2.29,2.61,5,4,7.8-4,5.42-7.75,11-12,16.24a94.87,94.87,0,0,1-40.35,29.07,461.69,461.69,0,0,1-48.45,15.49,307.77,307.77,0,0,1-93,8.9c-42.25-2.29-83-11-121.49-28.83C811.73,759.14,805.15,755.08,798.4,751.41Z" transform="translate(-502.06 -82.79)"/><path class="cls-4" d="M1081.3,360.9c-3.21-.43-5.48-1.88-6.31-5.27a7.24,7.24,0,0,0-1.85-3.75c-4.56-3.86-2.57-7.34-.2-11.5,8.52-15,10.53-30.75,4.1-47-1.68-4.25-4.55-8-6.83-12.06a28.8,28.8,0,0,1-1.28-2.89c8.36,5.31,13,13.42,15.77,22.48,5.47,17.76,2.35,31.87-8.39,49.36C1078.09,354.05,1079.7,357.47,1081.3,360.9Z" transform="translate(-502.06 -82.79)"/><path class="cls-4" d="M789.63,746.51l2.8,1.63Z" transform="translate(-502.06 -82.79)"/><path class="cls-4" d="M1174.73,775.21c.49.32,1,.65,1.45,1Z" transform="translate(-502.06 -82.79)"/><path class="cls-4" d="M1150.87,399l-1.39-1.2Z" transform="translate(-502.06 -82.79)"/><path class="cls-4" d="M792.41,748.11l1.61,1Z" transform="translate(-502.06 -82.79)"/><path class="cls-4" d="M795.06,749.66l1.7.91Z" transform="translate(-502.06 -82.79)"/><path class="cls-4" d="M796.72,750.54l1.72.9Z" transform="translate(-502.06 -82.79)"/><path class="cls-4" d="M1068.9,278.41l-.89-.81Z" transform="translate(-502.06 -82.79)"/><path class="cls-4" d="M1068,277.61l-.92-.81Z" transform="translate(-502.06 -82.79)"/><path class="cls-4" d="M788.13,745.52l1.11.77Z" transform="translate(-502.06 -82.79)"/><path class="cls-4" d="M1148.54,397l-1.07-.57Z" transform="translate(-502.06 -82.79)"/><path class="cls-4" d="M1149.45,397.79l-.9-.74Z" transform="translate(-502.06 -82.79)"/><path class="cls-4" d="M794,749.09l1.06.59Z" transform="translate(-502.06 -82.79)"/><path class="cls-4" d="M1067.11,276.83l-1-.62Z" transform="translate(-502.06 -82.79)"/><path class="cls-4" d="M1151.76,399.8l-.91-.82Z" transform="translate(-502.06 -82.79)"/><path class="cls-5" d="M995,378.58,1012.94,424c.42,1.05.9,2.07,1.3,3.13,1.93,5.09,4.78,9.84.64,15.58-1.43,2-.81,6.07,0,8.89a105,105,0,0,0,5.46,14.59c3.52,7.94,10,11.46,18.52,11.58,1.4,0,2.81,0,4.81,0,3.31,9.75,6.77,19.66,9.89,29.68.28.9-1.34,3-2.55,3.67-11.28,6-22.09,12.54-30.7,22.13-8.2,9.14-13,19.44-9.88,32.08,1.89,7.51,6.48,13.35,12.12,18.44,10.37,9.36,22.79,15,35.85,19.26,10.77,3.53,21.24,7.65,30.21,14.69a17.42,17.42,0,0,1,5.15,7.26q11.64,30.75,22.73,61.68a13.85,13.85,0,0,1,.15,7.79c-6.54,24.38-22.28,41.16-44.72,51.52-22.84,10.55-47.09,17-72,20.42a387.15,387.15,0,0,1-49.12,4.05,315.66,315.66,0,0,1-48-3.33c-15.39-2.22-30.47-6.56-45.68-10a4.67,4.67,0,0,1-1.1-.62c-3.75-7.8-7.63-15.54-11.19-23.42-1.93-4.27-3.31-8.79-4.94-13.2a20.74,20.74,0,0,1,2.1.23q23.58,5.24,43.37-8.59c23.13-16.19,24.08-47.21,2.08-64-21.05-16.1-54.16-14-72.86,9.06-1-3-2.16-6-2.87-9-1.46-6.27-2.66-12.59-4-18.9,4.77-3,9.87-5.49,14.25-8.94,19.83-15.67,23.82-42.72,9.35-62.53C823.75,546.72,813,540.86,801,537c.38-1.61.47-3.38,1.21-4.8,2.58-5,5.39-9.85,8.11-14.76a58.7,58.7,0,0,0,25.92-1.67c23.67-7,42.26-31.34,30.71-58.18l17.17-13.81c15.47,20.67,39.62,27.23,63.5,17,26.39-11.31,37.31-42.17,16.79-65,2.5-1.81,4.83-3.93,7.52-5.37C979.53,386.29,987.3,382.49,995,378.58ZM922.76,701c-.17,11.07,2.5,18.66,7.52,25.4,20.64,27.73,67.23,24.69,84.11-5.55,9.19-16.47,5.53-35.35-8.34-47.08-17.39-14.72-37.2-16.8-57.63-7.41C932.89,673.49,923.59,685.85,922.76,701Z" transform="translate(-502.06 -82.79)"/><path class="cls-6" d="M839.91,719.9c1.63,4.41,3,8.93,4.94,13.2,3.56,7.88,7.44,15.62,11.19,23.42-10.53-3.84-21.28-7.15-31.54-11.62a234.93,234.93,0,0,1-75.79-52.08c-22.63-23.36-39-50.41-47-82.14a159.87,159.87,0,0,1-4.88-49.8c2.49-37.41,15.85-70.77,38.71-100.31,28.28-36.55,64.88-62,107.23-79.69a290.31,290.31,0,0,1,69.13-19.62c15.7-2.34,31.62-3.29,47.48-4.5,5.63-.43,11.09.2,16.06,4.14,3.88,3.08,8.78,5,13.45,6.88,3.61,1.45,6.68,2.71,5.92,7.44a15.31,15.31,0,0,0,.19,3.36c-7.71,3.91-15.48,7.71-23.1,11.79-2.69,1.44-5,3.56-7.52,5.37-1.24-.92-2.52-1.79-3.71-2.77-20.47-17-51.16-15.83-69.92,3-8.63,8.65-13.62,19.05-11.74,31.51.84,5.57,3.34,10.89,5.08,16.33l-17.17,13.81c-2.22-3-4.19-6.34-6.71-9.13-20.79-22.9-58.67-22.2-79,1.37a39.11,39.11,0,0,0,4.48,55.53c7.26,6.19,15.64,9.65,24.63,12.08-2.72,4.91-5.53,9.77-8.11,14.76-.74,1.42-.83,3.19-1.21,4.8a21.85,21.85,0,0,1-2.93-.22c-21.32-4.32-40.29.39-56,15.52-11.93,11.46-17.33,25.76-13.51,42.16,6.35,27.24,35.4,41.92,60.49,38.41,6.33-.89,12.52-2.81,18.77-4.26,1.31,6.31,2.51,12.63,4,18.9.71,3.07,1.9,6,2.87,9-.53,1-1,2-1.58,3-10.65,18.27-7.37,37.51,9.35,50.65C827.56,714.23,834,716.7,839.91,719.9Z" transform="translate(-502.06 -82.79)"/><path class="cls-7" d="M1190.51,735.77q.75,8.12,1.51,16.21c.14,1.53.85,3.32.3,4.54-.94,2.1-2.32,4.65-4.19,5.47-1.39.6-4.66-.65-5.7-2.09-11-15.26-22.28-30.37-32.4-46.21-13.69-21.43-22.66-45.1-30.7-69.15-6.31-18.89-13.15-37.6-19.59-56.45-6-17.52-11.66-35.15-17.64-52.68-6.42-18.85-13-37.63-19.57-56.45a32.79,32.79,0,0,0-1.41-4.37c-1.37-2.67.18-3.62,2.27-4.28,7.2-2.25,14.42-4.44,21.63-6.67,2.07-.65,3.22-.19,4.2,2.06,7.7,17.75,15.59,35.43,23.4,53.14,10.29,23.37,20.65,46.7,30.79,70.13,7.2,16.65,13.88,33.53,21.15,50.15,6.08,13.92,12.48,27.72,15.83,42.59,3.26,14.46,5.85,29.08,8.69,43.65.67,3.44,1.17,6.92,1.75,10.38Z" transform="translate(-502.06 -82.79)"/><path class="cls-8" d="M991,255.93c17.27,8.28,34.17,16.28,51,24.46,19.4,9.44,24.66,29.47,16.88,48.5-.16.39-.32.78-.49,1.17-3.38,7.49-7.36,13.41-16.74,15.34-11.79,2.43-23.14,7-34.68,10.65a4.36,4.36,0,0,1-2.44.16c-13.05-4-24.78-9.9-32.59-21.88-7.41-11.36-6.93-22.8-1.07-34.45,4.81-9.57,10-18.95,14.59-28.63C987.83,266.11,989.33,260.52,991,255.93Z" transform="translate(-502.06 -82.79)"/><path class="cls-9" d="M1085.75,380.75c16.55,7.12,32.21,15.12,46.33,25.78a45,45,0,0,1,10,10.8c11.42,17.06,9.39,40.12-4.5,55.54-6.39,7.09-12.41,11.44-19.72,14.06-3.95-8.93-8-17.88-11.77-26.92-.31-.74.62-2.56,1.48-3.15,9.07-6.26,11.16-13,7-23.25-1-2.34-1.86-4.71-2.66-7.12-2.23-6.67-6.39-11.46-13.08-14a4.4,4.4,0,0,1-2.44-2c-3.71-9.41-7.28-18.87-10.87-28.33C1085.43,382,1085.58,381.68,1085.75,380.75Z" transform="translate(-502.06 -82.79)"/><path class="cls-10" d="M1030,417.54q-8.31-21.17-16.62-42.33c-1-2.62-.39-4.23,2.45-5.1,12.09-3.71,24.16-7.46,36.2-11.33,2.65-.85,4.43-.38,5.43,2.21q7.85,20.2,15.63,40.43c-9.95,3.65-19.91,7.27-29.85,11C1038.82,414,1034.43,415.82,1030,417.54Z" transform="translate(-502.06 -82.79)"/><path class="cls-11" d="M1061.23,531.84c1.87,4.78,3.89,9.51,5.58,14.36,5.34,15.41,10.56,30.86,15.8,46.3a18.48,18.48,0,0,1,.32,2.79c-14.18-6.17-27.63-12-41-17.9-.82-.36-1.37-1.37-2.05-2.08l-.81-1,0,0-.83-.9,0,0a23.16,23.16,0,0,0-1.25-2.55c-4.09-6.4-3.76-12.92.42-18.9a53.79,53.79,0,0,1,9.75-10.36C1051.55,538,1056.51,535.09,1061.23,531.84Z" transform="translate(-502.06 -82.79)"/><path class="cls-12" d="M1037.11,459.82c-1.63-4.29-3.26-8.58-5.12-13.45,5.21-1.68,10.09-3.31,15-4.84,14-4.36,27.94-8.59,41.83-13.1,2.81-.92,4.24-.51,5.1,2.24.58,1.86,1.29,3.68,1.94,5.53-4.29,1.3-8.64,2.41-12.85,3.93-12,4.34-24,8.67-35.85,13.39C1043.55,455,1040.45,457.68,1037.11,459.82Z" transform="translate(-502.06 -82.79)"/><path class="cls-13" d="M1074.81,405.52c1,2.28,2.4,4.47,3,6.86a3.87,3.87,0,0,1-1.79,3.37q-19.65,6.38-39.44,12.25c-1,.29-2.83-.6-3.47-1.51-.92-1.29-1.1-3.12-1.6-4.72,4.54-1.67,9.08-3.31,13.6-5Q1060,411.17,1074.81,405.52Z" transform="translate(-502.06 -82.79)"/><path class="cls-4" d="M1061.23,531.84c-4.72,3.25-9.68,6.2-14.08,9.84A53.79,53.79,0,0,0,1037.4,552c-4.18,6-4.51,12.5-.42,18.9a23.16,23.16,0,0,1,1.25,2.55c-9.17-3.63-13.57-15.81-7.92-24.26A70,70,0,0,1,1043.76,535c4.46-3.74,9.87-6.34,15.81-10C1060.25,527.79,1060.74,529.81,1061.23,531.84Z" transform="translate(-502.06 -82.79)"/><path class="cls-14" d="M1097,438.67c1.46,2.27,2.92,4.44-1.17,5.69-18.65,5.67-37.27,11.43-55.9,17.15,1-1,1.88-2.5,3.11-3,5.83-2.29,11.78-4.26,17.66-6.42Q1078.84,445.42,1097,438.67Z" transform="translate(-502.06 -82.79)"/><path class="cls-15" d="M1097,438.67q-18.15,6.72-36.3,13.43c-5.88,2.16-11.83,4.13-17.66,6.42-1.23.49-2.08,2-3.11,3l-2.79-1.69c3.34-2.14,6.44-4.86,10.05-6.3,11.85-4.72,23.85-9,35.85-13.39,4.21-1.52,8.56-2.63,12.85-3.93Z" transform="translate(-502.06 -82.79)"/><path class="cls-15" d="M1074.81,405.52q-14.83,5.63-29.68,11.24c-4.52,1.7-9.06,3.34-13.6,5-.26-.85-.53-1.69-.79-2.54a33.5,33.5,0,0,0,5.62-1.13c6.16-2.36,12.23-4.94,18.35-7.39,6.36-2.55,12.75-5,19.13-7.57Z" transform="translate(-502.06 -82.79)"/><path class="cls-12" d="M1073.84,403.14c-6.38,2.52-12.77,5-19.13,7.57-6.12,2.45-12.19,5-18.35,7.39a33.5,33.5,0,0,1-5.62,1.13l-.72-1.69c4.41-1.72,8.8-3.52,13.24-5.16,9.94-3.69,19.9-7.31,29.85-11C1073.35,402,1073.59,402.57,1073.84,403.14Z" transform="translate(-502.06 -82.79)"/><path class="cls-4" d="M1038.21,573.47l.83.9Z" transform="translate(-502.06 -82.79)"/><path class="cls-4" d="M1039,574.35l.81,1Z" transform="translate(-502.06 -82.79)"/><path class="cls-16" d="M807.76,628.61c-6.25,1.45-12.44,3.37-18.77,4.26-25.09,3.51-54.14-11.17-60.49-38.41-3.82-16.4,1.58-30.7,13.51-42.16,15.75-15.13,34.72-19.84,56-15.52A21.85,21.85,0,0,0,801,537c12,3.86,22.77,9.72,30.38,20.14C845.83,577,841.84,604,822,619.67,817.63,623.12,812.53,625.66,807.76,628.61Zm10.55-59.71a56.81,56.81,0,0,0-4.41-6.13C800.07,548,774.48,546.25,758.41,559c-14,11.13-17.55,27.72-8.49,42.35,5.83,9.41,14.93,14.17,25.65,16.06.2.19.38.52.6.55,15.12,1.94,32.55-2.89,41.43-17.57C823.76,590.18,824.31,579.53,818.31,568.9Z" transform="translate(-502.06 -82.79)"/><path class="cls-17" d="M810.3,517.44c-9-2.43-17.37-5.89-24.63-12.08a39.11,39.11,0,0,1-4.48-55.53c20.36-23.57,58.24-24.27,79-1.37,2.52,2.79,4.49,6.08,6.71,9.13,11.55,26.84-7,51.13-30.71,58.18A58.7,58.7,0,0,1,810.3,517.44Zm1.27-16.55c11.26,3.36,21.51.73,30.53-6.14,11.42-8.7,13.07-25.17,5.55-34-8.45-12.75-28.24-16.9-42.67-8.89-9,5-14.78,12.23-14.93,22.79C789.87,487.21,798.62,497.56,811.57,500.89Z" transform="translate(-502.06 -82.79)"/><path class="cls-3" d="M884.1,443.78c-1.74-5.44-4.24-10.76-5.08-16.33-1.88-12.46,3.11-22.86,11.74-31.51,18.76-18.8,49.45-20,69.92-3,1.19,1,2.47,1.85,3.71,2.77,20.52,22.86,9.6,53.72-16.79,65C923.72,471,899.57,464.45,884.1,443.78Zm35.44,4.88a33.82,33.82,0,0,0,21.35-2.47c13.68-6.44,20.24-22,12.81-35-10.84-16.46-34.86-19.09-49-5.35-9.5,9.25-10.6,22.46-2.49,32.37A28.91,28.91,0,0,0,919.54,448.66Z" transform="translate(-502.06 -82.79)"/><path class="cls-18" d="M839.91,719.9c-5.88-3.2-12.35-5.67-17.54-9.75-16.72-13.14-20-32.38-9.35-50.65.56-1,1.05-2,1.58-3,18.7-23.1,51.81-25.16,72.86-9.06,22,16.84,21,47.86-2.08,64q-19.74,13.82-43.37,8.59A20.74,20.74,0,0,0,839.91,719.9Zm41.88-53.7c-8.1-11.91-22.73-16.52-37.34-11.77-10.74,3.49-18.9,13-19.73,23-.87,10.49,4.75,19.76,15.18,25,13.91,8.16,35.56,2.16,42.85-12.08C886.91,682.23,887.1,674.05,881.79,666.2Z" transform="translate(-502.06 -82.79)"/><path class="cls-19" d="M922.76,701c.83-15.14,10.13-27.5,25.66-34.64,20.43-9.39,40.24-7.31,57.63,7.41,13.87,11.73,17.53,30.61,8.34,47.08-16.88,30.24-63.47,33.28-84.11,5.55C925.26,719.65,922.59,712.06,922.76,701Zm35.68,26.87c10.16,4.19,20,2.81,29.37-2.18a25.51,25.51,0,0,0,12.3-31c-1.6-2.76-2.76-5.94-4.88-8.23-11.18-12.09-31.14-13.72-44.19-3.64-8.47,6.54-12.57,15.21-10.24,26C942.89,718.36,949.16,724.61,958.44,727.86Z" transform="translate(-502.06 -82.79)"/><path class="cls-20" d="M775.57,617.39c-10.72-1.89-19.82-6.65-25.65-16.06-9.06-14.63-5.56-31.22,8.49-42.35,16.07-12.73,41.66-11,55.49,3.79a56.81,56.81,0,0,1,4.41,6.13c-1,2.92-1.82,5.9-3,8.76C807.77,596.57,792.75,608.08,775.57,617.39Z" transform="translate(-502.06 -82.79)"/><path class="cls-21" d="M775.57,617.39c17.18-9.31,32.2-20.82,39.78-39.73,1.14-2.86,2-5.84,3-8.76,6,10.63,5.45,21.28-.71,31.47-8.88,14.68-26.31,19.51-41.43,17.57C776,617.91,775.77,617.58,775.57,617.39Z" transform="translate(-502.06 -82.79)"/><path class="cls-22" d="M811.57,500.89c-13-3.33-21.7-13.68-21.52-26.23.15-10.56,6-17.82,14.93-22.79,14.43-8,34.22-3.86,42.67,8.89-.71,10.86-6,19.52-12.74,27.67C828.74,495.87,820,497.93,811.57,500.89Z" transform="translate(-502.06 -82.79)"/><path class="cls-23" d="M811.57,500.89c8.41-3,17.17-5,23.34-12.46,6.76-8.15,12-16.81,12.74-27.67,7.52,8.82,5.87,25.29-5.55,34C833.08,501.62,822.83,504.25,811.57,500.89Z" transform="translate(-502.06 -82.79)"/><path class="cls-24" d="M919.54,448.66a28.91,28.91,0,0,1-17.3-10.49c-8.11-9.91-7-23.12,2.49-32.37,14.11-13.74,38.13-11.11,49,5.35-1,4.07-1.39,8.47-3.23,12.12-4.38,8.71-12.1,14.14-20.43,18.78C926.43,444.06,923,446.44,919.54,448.66Z" transform="translate(-502.06 -82.79)"/><path class="cls-25" d="M919.54,448.66c3.49-2.22,6.89-4.6,10.5-6.61,8.33-4.64,16.05-10.07,20.43-18.78,1.84-3.65,2.2-8,3.23-12.12,7.43,13,.87,28.6-12.81,35A33.82,33.82,0,0,1,919.54,448.66Z" transform="translate(-502.06 -82.79)"/><path class="cls-26" d="M839.9,702.42c-10.43-5.28-16-14.55-15.18-25,.83-10,9-19.46,19.73-23,14.61-4.75,29.24-.14,37.34,11.77-.75,2.67-1,5.62-2.34,8C870.71,689.72,855.71,696.67,839.9,702.42Z" transform="translate(-502.06 -82.79)"/><path class="cls-27" d="M839.9,702.42c15.81-5.75,30.81-12.7,39.55-28.25,1.32-2.35,1.59-5.3,2.34-8,5.31,7.85,5.12,16,1,24.14C875.46,704.58,853.81,710.58,839.9,702.42Z" transform="translate(-502.06 -82.79)"/><path class="cls-28" d="M958.44,727.86c-9.28-3.25-15.55-9.5-17.64-19.15-2.33-10.74,1.77-19.41,10.24-26,13.05-10.08,33-8.45,44.19,3.64,2.12,2.29,3.28,5.47,4.88,8.23a27.12,27.12,0,0,0-2,3.16c-3.55,7.61-8.73,13.82-16.09,17.88C974.27,719.94,966.31,723.81,958.44,727.86Z" transform="translate(-502.06 -82.79)"/><path class="cls-29" d="M958.44,727.86c7.87-4.05,15.83-7.92,23.57-12.19,7.36-4.06,12.54-10.27,16.09-17.88a27.12,27.12,0,0,1,2-3.16,25.51,25.51,0,0,1-12.3,31C978.45,730.67,968.6,732.05,958.44,727.86Z" transform="translate(-502.06 -82.79)"/></svg>