<svg id="圖層_1" data-name="圖層 1" xmlns="http://www.w3.org/2000/svg" viewBox="0 0 986.87 986.93"><defs><style>.cls-1{fill:#9f6e28;}.cls-2{fill:#feaf3f;}.cls-3{fill:#e8dc76;}.cls-4{fill:#010100;}.cls-5{fill:#afb8b8;}.cls-6{fill:#a2a9a9;}.cls-7{fill:#96999a;}.cls-8{fill:#7d8283;}.cls-9{fill:#6c7373;}.cls-10{fill:#eaf5f6;}.cls-11{fill:#bcc4c5;}.cls-12{fill:#bbc3c4;}.cls-13{fill:#bec6c7;}.cls-14{fill:#9ea5a5;}.cls-15{fill:#999fa0;}.cls-16{fill:#adb4b5;}.cls-17{fill:#b2b9ba;}.cls-18{fill:#070808;}.cls-19{fill:#0f1010;}.cls-20{fill:#060707;}.cls-21{fill:#070707;}.cls-22{fill:#020202;}.cls-23{fill:#77af77;}.cls-24{fill:#010101;}.cls-25{fill:#080808;}.cls-26{fill:#030303;}.cls-27{fill:#e9f5f4;}.cls-28{fill:#ebf6f7;}</style></defs><path class="cls-1" d="M1499.7,584.89c-.54,4.29-1.26,8.56-1.61,12.86-8,97.85-41.81,185.87-102.21,263.17q-106,135.66-273.59,177.08a476.85,476.85,0,0,1-150.41,12.6c-102.94-7.58-195.14-43.29-275.32-108.35-89.65-72.74-147.12-165.91-172.35-278.61-11.42-51-14.05-102.69-8.76-154.76a493.5,493.5,0,0,1,366.18-428,488.28,488.28,0,0,1,94-15A15.76,15.76,0,0,0,978.9,65h53.91a13.81,13.81,0,0,0,2.81.87c10.9,1,21.85,1.61,32.71,3a487.75,487.75,0,0,1,152.29,45,493.25,493.25,0,0,1,277.43,404.73c.39,4.75,1.1,9.48,1.65,14.22ZM549.46,558.42c.17,252.43,204,455.5,454.25,456.81,254.46,1.32,459.62-204.53,459.44-457.09C1463,306,1258.93,102.3,1007.77,101.57,754.15,100.83,549.45,306.15,549.46,558.42Z" transform="translate(-512.83 -65)"/><path class="cls-2" d="M549.46,558.42c0-252.27,204.69-457.59,458.31-456.85C1258.93,102.3,1463,306,1463.15,558.14c.18,252.56-205,458.41-459.44,457.09C753.49,1013.92,549.63,810.85,549.46,558.42ZM1044.71,235l-1.79-.79c-5.62-3.37-11-9.11-16.91-9.65-17.16-1.55-34.51-1-51.79-1.3a1.84,1.84,0,0,0-.44.13q-24.9,6.41-33.12,30.78l-.92,3.65-.23,4.54-25.44.22q-42.71-.09-85.4-.17A41.85,41.85,0,0,0,787,304.22q0,254.61.08,509.23a52,52,0,0,0,2,12.95c2.5,9.52,9.43,16,16.19,22.56,8.46,11.63,20.24,16.43,34.25,16.43q167.16,0,334.3,0a45.26,45.26,0,0,0,7.28-.4c22.11-3.65,36.21-20.58,36.21-43.47q0-252.56,0-505.11a43.32,43.32,0,0,0-.07-4.56c-1.14-10.91-4.59-20.69-13.64-27.71-1-1.32-2-2.64-3-4-7.74-10.45-18-17.32-31-17.59-27.68-.58-55.38-.09-83.07,0l-7.95,0-21.08-.18a31.39,31.39,0,0,0-7.41-20.1l0,0-1.91-3.17-1.37-1.35-2.24-2.83Z" transform="translate(-512.83 -65)"/><path class="cls-3" d="M1086.6,262.53c27.69,0,55.39-.54,83.07,0,12.95.27,23.24,7.14,31,17.59,1,1.33,2,2.65,3,4-.19.2-.58.52-.54.58,4,6.57,5.13,13.79,5.13,21.34q0,252.83,0,505.65c0,25.58-18.11,43.64-43.73,43.64q-166.95,0-333.9,0a45,45,0,0,1-22.32-5.49,14.27,14.27,0,0,0-2.95-.92c-6.76-6.55-13.69-13-16.19-22.56a52,52,0,0,1-2-12.95Q787,558.84,787,304.22a41.85,41.85,0,0,1,41.64-41.85q42.71,0,85.4.17l-4.52,3.5-2,1.77c-6,3.59-9.36,9.18-11.91,15.42l-1.86,3.69c-4,2.83-3.39,7.08-3.44,11.12,0,.91-.05,1.81-.08,2.71l-.78,10.1v6.37c-.08.91-.15,1.83-.23,2.74h-66.6V819.87a17.75,17.75,0,0,1,0,2.73c-.45,2.93,1,3.83,3.63,3.61,0,4,3.09,2.59,5,2.59q169.89.09,339.79,0c1.61,0,3.23-.15,5.21-.24V329a20.71,20.71,0,0,1,0-2.73c.38-2.8-.79-4-3.57-3.67.18-3.12-2-2.7-4-2.69l-57.15.05-.24-1.89c-.5-8.87.54-18.18-1.83-26.51A47.06,47.06,0,0,0,1086.6,262.53Z" transform="translate(-512.83 -65)"/><path class="cls-4" d="M805.33,849a14.27,14.27,0,0,1,2.95.92,45,45,0,0,0,22.32,5.49q166.95-.06,333.9,0c25.62,0,43.73-18.06,43.73-43.64q0-252.83,0-505.65c0-7.55-1.16-14.77-5.13-21.34,0-.06.35-.38.54-.58,9,7,12.5,16.8,13.64,27.71a43.32,43.32,0,0,1,.07,4.56q0,252.55,0,505.11c0,22.89-14.1,39.82-36.21,43.47a45.26,45.26,0,0,1-7.28.4q-167.15,0-334.3,0C825.57,865.39,813.79,860.59,805.33,849Z" transform="translate(-512.83 -65)"/><path class="cls-5" d="M940.66,254.13q8.18-24.42,33.12-30.78a1.84,1.84,0,0,1,.44-.13c17.28.28,34.63-.25,51.79,1.3,5.88.54,11.29,6.28,16.91,9.65l1.79.79,0,0,2.24,2.83c.46.45.92.9,1.37,1.36l1.91,3.16,0,0q2.22,6.39,4.45,12.79-43.51-.45-87-.87C958.61,254.07,949.63,254.13,940.66,254.13Zm55.79-18.24c-3.43-.1-4.76,1.77-4.77,5s1.3,5.1,4.73,5c3.57.23,6.06-1.13,6.08-5S1000,235.7,996.45,235.89Z" transform="translate(-512.83 -65)"/><path class="cls-6" d="M909.55,266l4.52-3.5,25.44-.22,116.12.05,1.94,0,21.08.18,7.19,2.5a32.17,32.17,0,0,1-5.6,1q-79.31.07-158.62,0Z" transform="translate(-512.83 -65)"/><path class="cls-7" d="M1055.63,262.37l-116.12-.05c.08-1.51.16-3,.23-4.54l115.77,0Z" transform="translate(-512.83 -65)"/><path class="cls-6" d="M1055.51,257.74l-115.77,0c.31-1.21.62-2.43.92-3.65,9,0,18-.06,26.92,0q43.51.39,87,.87Z" transform="translate(-512.83 -65)"/><path class="cls-8" d="M1085.84,265l-7.19-2.5,7.95,0a47.06,47.06,0,0,1,22.9,29c2.37,8.33,1.33,17.64,1.83,26.51h-1.78c0-.33-.08-.66-.13-1,0-.91-.06-1.81-.08-2.72q-.4-6.81-.79-13.61l-.84-2.77q-1.38-5.5-2.77-11l-1.6-3.66a30.89,30.89,0,0,0-11-14.65Z" transform="translate(-512.83 -65)"/><path class="cls-9" d="M1055.51,257.74l-.9-2.72q-2.23-6.41-4.45-12.79a31.39,31.39,0,0,1,7.41,20.1l-1.94,0Z" transform="translate(-512.83 -65)"/><path class="cls-9" d="M1046.91,237.75l-2.24-2.83Z" transform="translate(-512.83 -65)"/><path class="cls-9" d="M1050.19,242.27l-1.91-3.16Z" transform="translate(-512.83 -65)"/><path class="cls-9" d="M1044.71,235l-1.79-.79Z" transform="translate(-512.83 -65)"/><path class="cls-10" d="M1111.57,320l57.15-.05c2,0,4.16-.43,4,2.69,0,2.13-.09,4.26-.09,6.39q0,245.25,0,490.5v6.61H832.65c-2.13,0-4.26.06-6.39.1-2.62.22-4.08-.68-3.63-3.61a17.75,17.75,0,0,0,0-2.73V320h66.61c.07.61.15,1.22.23,1.83v8.9c1.18.1,1.77.2,2.37.2l217.71-.06c.63-.68,1.76-1.31,1.82-2C1111.63,325.87,1111.54,322.91,1111.57,320Zm-217.73,191a30.64,30.64,0,0,0-5.23-.91c-10.33-.09-20.66-.08-31,0-6.6,0-9.82,3.24-10.29,10-6.26,3-6.94,5.77-3,11.55,1.1,1.59,2,3.28,3,4.93,0,5.31-.15,10.63,0,15.94.1,5.76,3.7,9.51,9.34,9.57q16.62.16,33.26,0c5.69,0,9.37-3.77,9.41-9.48.08-9.26-.06-18.53-.1-27.79.8-1.28,1.56-2.59,2.43-3.83,5.2-7.46,10.51-14.86,15.62-22.38,2.09-3.07,2.45-6.55-.89-8.89-2.8-2-5.84-1.1-8.18,1.42a34.43,34.43,0,0,0-2.41,3.3ZM847.48,438c-.05,6.52-.21,13-.12,19.56.09,5.73,3.74,9.41,9.42,9.47q16.62.15,33.23,0c5.66-.05,9.33-3.79,9.37-9.5.06-10.47-.07-20.94-.12-31.4,2.66-4.06,5.28-8.13,8-12.16,5-7.43,10.24-14.68,14.77-22.37,1.13-1.91.57-5.53-.5-7.74-.55-1.15-4.08-1.61-6-1.15-1.62.4-3.06,2.37-4.16,3.94-4.41,6.35-8.59,12.85-13,19.19-2.22,3.19-4.77,6.15-7.17,9.21-11.24,0-22.48,0-33.71-.09-3.8,0-6.79,1.28-8.84,4.54-3,0-6.18-.56-7.95,2.78s.13,6,1.95,8.65C844.29,433.24,845.88,435.61,847.48,438Zm189.45,124.74q51.61,0,103.23,0c2,0,4.33.32,5.8-.62,1.91-1.23,4.3-3.59,4.27-5.43s-2.44-4.14-4.35-5.44c-1.3-.88-3.54-.51-5.35-.51q-103.69,0-207.39,0a27.59,27.59,0,0,0-4.55.24c-3.23.53-5.34,2.39-5.34,5.79,0,3.17,1.94,5.08,5,5.61a35.22,35.22,0,0,0,5.91.37Q985.54,562.73,1036.93,562.71Zm-5.5-99.63h100.49c6.89,0,9.89-1.86,9.9-6.06s-3-6.06-9.89-6.06q-100,0-200.05,0c-1.82,0-4.06-.35-5.35.55-1.88,1.31-4.23,3.6-4.23,5.48s2.32,4.24,4.22,5.47c1.46.94,3.83.59,5.8.59Q981.88,463.1,1031.43,463.08Zm-7,256.36q48.61,0,97.25,0c2,0,4.37.42,5.8-.52,1.89-1.24,4-3.57,4.18-5.57.11-1.67-2.24-3.89-4-5.18-1.16-.85-3.22-.64-4.87-.64q-98.4,0-196.79,0c-1.66,0-3.75-.27-4.87.59-1.84,1.4-4.22,3.67-4.17,5.5s2.46,4.18,4.4,5.37c1.48.9,3.84.45,5.81.45Q975.79,719.46,1024.42,719.44Zm-1.23-291q46.35,0,92.7,0c6.8,0,9.93-2,9.79-6.2-.13-3.95-3.16-5.77-9.71-5.77q-92.48,0-185,0c-1.82,0-4.09-.38-5.34.53-1.86,1.34-4,3.62-4.13,5.62-.09,1.67,2.22,4.06,4.06,5.1,1.67,1,4.13.68,6.25.68Q977.52,428.49,1023.19,428.46Zm3.31,224h96.82c6.7,0,9.9-2,9.86-6.15s-3.24-6.12-9.94-6.12q-96.37,0-192.74,0c-2.4,0-5.16-.12-7.11,1-1.78,1-3.61,3.52-3.68,5.44-.06,1.64,2,4,3.75,4.88,2,1,4.72.92,7.13.92Q978.54,652.54,1026.5,652.5Zm-12.43-137H934.13c-6.55,0-9.54,1.89-9.5,5.94s3,5.84,9.59,5.84h160.34c6.69,0,9.6-1.73,9.73-5.71.12-4.18-2.91-6.07-9.82-6.07ZM977,748.67c17.64,0,35.28,0,52.92,0,5,0,7.67-2.24,7.67-5.91s-2.66-5.77-7.64-6c-.61,0-1.22,0-1.83,0q-50.64,0-101.29,0c-1.8,0-4-.22-5.31.69-1.76,1.23-3.88,3.47-3.88,5.27s2.09,4.1,3.84,5.35c1.28.9,3.52.58,5.33.59Q951.9,748.71,977,748.67ZM873.36,752.1c5.33,0,10.65,0,16,0,6.33-.08,10-3.6,10-9.82q.12-16.2,0-32.4c0-6-3.63-9.75-9.58-9.81q-16.42-.18-32.86,0c-5.76.05-9.52,3.69-9.58,9.35q-.17,16.67,0,33.32c.07,5.69,3.81,9.25,9.56,9.36C862.41,752.18,867.89,752.1,873.36,752.1Zm0-95c5.17,0,10.34,0,15.51,0,6.92-.05,10.46-3.49,10.49-10.3q.08-15.75,0-31.49c0-6.6-3.54-10.22-10.07-10.27q-16-.1-31.94,0c-6.31,0-10,3.63-10,9.85q-.12,16.2,0,32.4c.06,6.23,3.73,9.73,10.06,9.8C862.74,657.12,868.06,657.07,873.39,657.07Zm92.27-35.88h37.9c6.91,0,10-1.83,10.1-5.9s-3-6.12-9.84-6.13q-38.13,0-76.27,0a34,34,0,0,0-3.64.13c-3.45.37-5.86,2.12-5.95,5.72s2.27,5.48,5.69,6a33,33,0,0,0,4.56.21Q946.93,621.21,965.66,621.19Z" transform="translate(-512.83 -65)"/><path class="cls-11" d="M1092.31,268.69a30.89,30.89,0,0,1,11,14.65,31.69,31.69,0,0,1-5.31.9q-98.87.08-197.71,0a21.8,21.8,0,0,1-4.68-1c2.55-6.23,5.93-11.82,11.91-15.41a42.34,42.34,0,0,0,6.26.9Q1003.06,268.76,1092.31,268.69Z" transform="translate(-512.83 -65)"/><path class="cls-12" d="M1108.55,300.77q.39,6.8.79,13.61-107.62,0-215.24.15c-3.05,0-3.8-1.55-4.62-3.68l.78-10.1Z" transform="translate(-512.83 -65)"/><path class="cls-13" d="M826.26,826.21c2.13,0,4.26-.1,6.39-.1H1172.6V819.5q0-245.25,0-490.5c0-2.13.06-4.26.09-6.39,2.78-.32,4,.87,3.57,3.67a20.71,20.71,0,0,0,0,2.73V828.6c-2,.09-3.6.24-5.21.24q-169.89,0-339.79,0C829.35,828.8,826.28,830.21,826.26,826.21Z" transform="translate(-512.83 -65)"/><path class="cls-14" d="M1104.94,287q1.38,5.5,2.77,11l-217.37,0c0-4-.56-8.29,3.44-11.12.92,0,1.83.1,2.74.1Z" transform="translate(-512.83 -65)"/><path class="cls-15" d="M889.49,321.79c-.08-.61-.16-1.22-.23-1.83l.21-2.74,75.3,0,144.65-.09c0,.33.09.66.13,1,0,.87-.08,1.74-.13,2.61-4,.05-8.06.13-12.09.13q-17,0-34.06,0H917.47c-2.84,0-5.68,0-8.51.08C902.46,321.17,896,321.5,889.49,321.79Z" transform="translate(-512.83 -65)"/><path class="cls-16" d="M1109.42,317.1l-144.65.09-75.3,0c0-2.12,0-4.25,0-6.37.82,2.13,1.57,3.69,4.62,3.68q107.61-.21,215.24-.15C1109.36,315.29,1109.39,316.19,1109.42,317.1Z" transform="translate(-512.83 -65)"/><path class="cls-16" d="M890.34,298l217.37,0,.84,2.77-218.29,0C890.29,299.85,890.31,299,890.34,298Z" transform="translate(-512.83 -65)"/><path class="cls-16" d="M1104.94,287l-208.42,0c-.91,0-1.82-.06-2.74-.1l1.86-3.69a22.39,22.39,0,0,0,4.68,1q98.85.08,197.71,0a31.69,31.69,0,0,0,5.31-.9Z" transform="translate(-512.83 -65)"/><path class="cls-17" d="M1092.31,268.69q-89.25,0-178.5,0a42.34,42.34,0,0,1-6.26-.9l2-1.77,12.07,0q79.3,0,158.62,0a32.17,32.17,0,0,0,5.6-1Z" transform="translate(-512.83 -65)"/><path class="cls-9" d="M1109.42,320.7c0-.87.09-1.74.13-2.61h1.78l.24,1.89c0,2.94.06,5.9-.18,8.82-.06.73-1.19,1.36-1.82,2Z" transform="translate(-512.83 -65)"/><path class="cls-2" d="M996.45,235.89c3.58-.19,6,1.21,6,5s-2.51,5.21-6.09,5Q991.08,240.89,996.45,235.89Z" transform="translate(-512.83 -65)"/><path class="cls-8" d="M996.45,235.89q-5.37,5-.05,10c-3.42.06-4.74-1.82-4.72-5S993,235.79,996.45,235.89Z" transform="translate(-512.83 -65)"/><path class="cls-18" d="M1036.93,562.71q-51.39,0-102.78,0a35.22,35.22,0,0,1-5.91-.37c-3-.53-5-2.44-5-5.61,0-3.4,2.11-5.26,5.34-5.79a27.59,27.59,0,0,1,4.55-.24q103.7,0,207.39,0c1.81,0,4-.37,5.35.51,1.91,1.3,4.33,3.56,4.35,5.44s-2.36,4.2-4.27,5.43c-1.47.94-3.83.62-5.8.62Q1088.55,562.74,1036.93,562.71Z" transform="translate(-512.83 -65)"/><path class="cls-19" d="M1031.43,463.07q-49.55,0-99.11,0c-2,0-4.34.35-5.8-.59-1.9-1.23-4.22-3.6-4.22-5.47s2.35-4.17,4.23-5.48c1.29-.9,3.53-.55,5.35-.55q100,0,200.05,0c6.91,0,9.89,1.85,9.89,6.06s-3,6.06-9.9,6.06Z" transform="translate(-512.83 -65)"/><path class="cls-20" d="M1024.42,719.44q-48.63,0-97.26,0c-2,0-4.33.45-5.81-.45-1.94-1.19-4.35-3.49-4.4-5.37s2.33-4.1,4.17-5.5c1.12-.86,3.21-.59,4.87-.59q98.4,0,196.79,0c1.65,0,3.71-.21,4.87.64,1.76,1.29,4.11,3.51,4,5.18-.14,2-2.29,4.33-4.18,5.57-1.43.94-3.83.52-5.8.52Q1073,719.46,1024.42,719.44Z" transform="translate(-512.83 -65)"/><path class="cls-21" d="M1023.19,428.46q-45.68,0-91.33,0c-2.12,0-4.58.28-6.25-.68-1.84-1-4.15-3.43-4.06-5.1.12-2,2.27-4.28,4.13-5.62,1.25-.91,3.52-.53,5.34-.53q92.47,0,185,0c6.55,0,9.58,1.82,9.71,5.77.14,4.19-3,6.2-9.79,6.2Q1069.54,428.48,1023.19,428.46Z" transform="translate(-512.83 -65)"/><path class="cls-22" d="M1026.5,652.5q-48,0-95.91,0c-2.41,0-5.09.08-7.13-.92-1.73-.84-3.81-3.24-3.75-4.88.07-1.92,1.9-4.45,3.68-5.44,2-1.1,4.71-1,7.11-1q96.38-.06,192.74,0c6.7,0,9.91,2,9.94,6.12s-3.16,6.15-9.86,6.15Z" transform="translate(-512.83 -65)"/><path class="cls-8" d="M1109.42,320.7l.15,10.13-217.71.06c-.6,0-1.19-.1-2.37-.2v-8.9c6.49-.29,13-.62,19.47-.87,2.83-.11,5.67-.08,8.51-.08h145.8q17,0,34.06,0C1101.36,320.83,1105.39,320.75,1109.42,320.7Z" transform="translate(-512.83 -65)"/><path class="cls-21" d="M1014.07,515.55h80.4c6.91,0,9.94,1.89,9.82,6.07-.13,4-3,5.71-9.73,5.71H934.22c-6.58,0-9.56-1.83-9.59-5.84s3-5.94,9.5-5.94Z" transform="translate(-512.83 -65)"/><path class="cls-23" d="M891.22,415c2.4-3.06,4.95-6,7.17-9.21,4.42-6.34,8.6-12.84,13-19.19,1.1-1.57,2.54-3.54,4.16-3.94,1.87-.46,5.4,0,6,1.15,1.07,2.21,1.63,5.83.5,7.74-4.53,7.69-9.81,14.94-14.77,22.37-2.7,4-5.32,8.1-8,12.16l-9.13,13.63q-5.88,9-11.77,18.1a30.92,30.92,0,0,0-2.5,2.49c-3.92,4.9-7.79,5-11.93.28-.87-1-1.91-1.85-2.87-2.76l-4.44-7.11L847.48,438c-1.6-2.36-3.19-4.73-4.81-7.08-1.82-2.63-3.76-5.24-1.95-8.65s4.95-2.83,7.95-2.78l7.62,9.93,13.47,19.08,15.87-24.29Z" transform="translate(-512.83 -65)"/><path class="cls-21" d="M977,748.68q-25.1,0-50.19,0c-1.81,0-4,.31-5.33-.59-1.75-1.25-3.84-3.52-3.84-5.35s2.12-4,3.88-5.27c1.3-.91,3.51-.68,5.31-.69q50.65,0,101.29,0c.61,0,1.22,0,1.83,0,5,.22,7.64,2.32,7.64,6s-2.7,5.89-7.67,5.91C1012.27,748.71,994.63,748.67,977,748.68Z" transform="translate(-512.83 -65)"/><path class="cls-24" d="M873.36,752.1c-5.47,0-11,.08-16.43,0-5.75-.11-9.49-3.67-9.56-9.36q-.18-16.66,0-33.32c.06-5.66,3.82-9.3,9.58-9.35q16.42-.15,32.86,0c6,.06,9.54,3.79,9.58,9.81q.12,16.2,0,32.4c0,6.22-3.71,9.74-10,9.82C884,752.15,878.69,752.1,873.36,752.1Zm-16.78-9.4H890V709.41H856.58Z" transform="translate(-512.83 -65)"/><path class="cls-24" d="M873.39,657.07c-5.33,0-10.65,0-16,0-6.33-.07-10-3.57-10.06-9.8q-.14-16.2,0-32.4c0-6.22,3.72-9.81,10-9.85q16-.1,31.94,0c6.53,0,10,3.67,10.07,10.27q.08,15.75,0,31.49c0,6.81-3.57,10.25-10.49,10.3C883.73,657.1,878.56,657.07,873.39,657.07ZM856.8,614.3v33.3h33.14V614.3Z" transform="translate(-512.83 -65)"/><path class="cls-23" d="M847.41,536.51c-1-1.65-1.94-3.34-3-4.93-4-5.78-3.3-8.54,3-11.55l9,7.22c4.26,6,8.52,12,13.2,18.62l18.84-26.63,5.44-8.32,12-16.55a34.43,34.43,0,0,1,2.41-3.3c2.34-2.52,5.38-3.39,8.18-1.42,3.34,2.34,3,5.82.89,8.89-5.11,7.52-10.42,14.92-15.62,22.38-.87,1.24-1.63,2.55-2.43,3.83q-4.59,6.4-9.17,12.8L879.42,552.8q-1.62,2.19-3.25,4.37c-4.08,5.45-8.43,5.59-12.54.28-3-3.9-5.85-8-8.87-11.87C852.39,542.5,849.86,539.53,847.41,536.51Z" transform="translate(-512.83 -65)"/><path class="cls-25" d="M965.66,621.19q-18.74,0-37.45,0a33,33,0,0,1-4.56-.21c-3.42-.47-5.79-2.31-5.69-6s2.5-5.35,5.95-5.72a34,34,0,0,1,3.64-.13q38.15,0,76.27,0c6.81,0,9.94,2,9.84,6.13s-3.19,5.89-10.1,5.9Z" transform="translate(-512.83 -65)"/><path class="cls-26" d="M861.06,457.83c1,.91,2,1.76,2.87,2.76,4.14,4.71,8,4.62,11.93-.28a30.92,30.92,0,0,1,2.5-2.49h11.77v-18.1l9.13-13.63c0,10.46.18,20.93.12,31.4,0,5.71-3.71,9.45-9.37,9.5q-16.62.18-33.23,0c-5.68-.06-9.33-3.74-9.42-9.47-.09-6.51.07-13,.12-19.56l9.14,12.75v7.11Z" transform="translate(-512.83 -65)"/><path class="cls-26" d="M847.41,536.51c2.45,3,5,6,7.35,9.07,3,3.92,5.85,8,8.87,11.87,4.11,5.31,8.46,5.17,12.54-.28q1.64-2.17,3.25-4.37H890.1V537.55q4.57-6.4,9.17-12.8c0,9.26.18,18.53.1,27.79,0,5.71-3.72,9.43-9.41,9.48q-16.63.16-33.26,0c-5.64-.06-9.24-3.81-9.34-9.57C847.26,547.14,847.38,541.82,847.41,536.51Z" transform="translate(-512.83 -65)"/><path class="cls-22" d="M856.36,527.25l-9-7.22c.47-6.81,3.69-10,10.29-10,10.33-.05,20.66-.06,31,0a30.64,30.64,0,0,1,5.23.91l-5.44,8.32h-32Z" transform="translate(-512.83 -65)"/><path class="cls-22" d="M891.22,415l-5.59,9.17h-29c-.12,1.92-.22,3.57-.32,5.21l-7.62-9.93c2.05-3.26,5-4.57,8.84-4.54C868.74,415,880,415,891.22,415Z" transform="translate(-512.83 -65)"/><path class="cls-27" d="M856.29,429.39c.1-1.64.2-3.29.32-5.21h29l-15.87,24.29Z" transform="translate(-512.83 -65)"/><path class="cls-27" d="M890.13,439.72v18.1H878.36Q884.25,448.78,890.13,439.72Z" transform="translate(-512.83 -65)"/><path class="cls-27" d="M861.06,457.83h-4.44v-7.11Z" transform="translate(-512.83 -65)"/><path class="cls-28" d="M856.58,742.7V709.41H890V742.7Z" transform="translate(-512.83 -65)"/><path class="cls-28" d="M856.8,614.3h33.14v33.3H856.8Z" transform="translate(-512.83 -65)"/><path class="cls-27" d="M856.36,527.25v-8h32l-18.84,26.63C864.88,539.28,860.62,533.27,856.36,527.25Z" transform="translate(-512.83 -65)"/><path class="cls-27" d="M890.1,537.55V552.8H879.42Z" transform="translate(-512.83 -65)"/></svg>