<svg id="圖層_3" data-name="圖層 3" xmlns="http://www.w3.org/2000/svg" viewBox="0 0 907.22 907.33"><defs><style>.cls-1{fill:#28649f;}.cls-2{fill:#3fa0fe;}.cls-3{fill:#000101;}.cls-4{fill:#27649f;}.cls-5{fill:#1f5385;}.cls-6{fill:#a1e7ea;}</style></defs><path class="cls-1" d="M1325,572.94c-.5,3.94-1.16,7.86-1.48,11.82-7.37,90-38.44,170.86-94,241.93q-97.44,124.71-251.51,162.8A434.15,434.15,0,0,1,839.77,1001C726,992.28,628.44,947.6,548.15,866.49,483.62,801.3,443,723.09,425.71,633A447.54,447.54,0,0,1,421,495.13,453.72,453.72,0,0,1,756.8,109.61a448,448,0,0,1,86.43-13.77,14.38,14.38,0,0,0,3-.84h49.56a12.38,12.38,0,0,0,2.58.8c10,.93,20.09,1.48,30.07,2.75a448.67,448.67,0,0,1,140,41.37,453.47,453.47,0,0,1,255,372.06c.36,4.38,1,8.72,1.52,13.08Zm-33.6-24.5c-.22-231.86-187.27-418.29-416.86-419.8-234.69-1.55-421.67,187.49-423.08,416.93-1.45,234.67,187.8,422,417.89,423C1103,969.57,1291.49,780.55,1291.4,548.44Z" transform="translate(-417.78 -95)"/><path class="cls-2" d="M1291.4,548.44c.09,232.11-188.41,421.13-422.05,420.12-230.09-1-419.34-188.32-417.89-423,1.41-229.44,188.39-418.48,423.08-416.93C1104.13,130.15,1291.18,316.58,1291.4,548.44ZM1107.64,234.22c-.18-.37-.52-.74-.51-1.11.08-7-3.25-9.25-9.7-6.8q-45.23,17.13-90.52,34.11c-7.9,3-9,6.68-3.32,12.73-1.83,2.9-1.48,5.89.94,7.91,6.1,5.11,12.52,9.85,18.81,14.74a38,38,0,0,1-3.07,4.4c-7.24,7.95-14.59,15.8-21.86,23.73q-26.89,29.31-53.77,58.65c-10.87,11.83-21.84,23.56-32.71,35.38q-27.51,29.9-54.95,59.85c-7.56,8.23-15.19,16.39-22.75,24.62-10.15,11.06-20.26,22.16-30.48,33.33-7-8.38-13.68-16.42-20.39-24.43q-18-21.51-36-43c-14.85-17.78-29.58-35.66-44.52-53.36-6.64-7.87-17.78-9.61-26.15-3.76-13.37,9.34-26.47,19.08-39.56,28.81q-62.46,46.43-124.82,93c-5.29,4-8.78,9.2-7.93,16.14.47,3.81,1.83,7.5,2.79,11.25.69,2.23,1,4.72,2.15,6.65,5.6,9.21,20.81,11.79,29.68,5.18q25.85-19.28,51.69-38.58,44.88-33.37,89.8-66.71c9.22-6.87,8.91-6.76,16,2,12,14.82,24.41,29.37,36.65,44q16.23,19.41,32.48,38.81c8.89,10.56,18.07,20.88,26.73,31.62,6.4,7.94,24.5,8.28,31.39.12,6.58-7.79,13.8-15,20.71-22.54q24.28-26.37,48.55-52.74c17.62-19.11,35.32-38.15,52.91-57.28q31.22-33.94,62.31-68,19.28-21,38.6-42c3.79-4.1,7.7-8.09,11.56-12.13,1.5-1.57,2.85-1.71,4.67-.16,6.44,5.51,13,10.83,19.54,16.25,6,5,13.5,2.75,15-5,2.45-12.48,4.54-25,6.58-37.6,3.21-19.81,6.23-39.64,9.39-59.46C1114.46,237.51,1113.1,235.38,1107.64,234.22ZM595.91,778.82c-13.32,0-26.06,0-38.79,0a24.41,24.41,0,0,0-5.41.43c-4.29,1-6.63,4-6.41,8.08a7.83,7.83,0,0,0,6.93,7.29,39.4,39.4,0,0,0,5.86.28q76.63.52,153.27,1,234.74,1.41,469.48,2.78a23.76,23.76,0,0,0,5.4-.49c4.08-1,6.34-3.9,6.25-7.78a7.68,7.68,0,0,0-6.64-7.52,35.47,35.47,0,0,0-6.27-.42c-10.74,0-21.49,0-32.65,0V414.61c0-10.4-2.67-13-13.23-13h-58.37c-9.53,0-12.4,2.91-12.4,12.58V781.49h-32.76v-5.38q0-127.46,0-254.9c0-7.87-3.36-11.26-11.2-11.26q-30.24,0-60.47,0c-9.34,0-12.32,3-12.32,12.24V780.93H913.42V619.45c0-7.83-3.39-11.22-11.23-11.23H841.3c-8.74,0-11.88,3.13-11.88,11.85V780.25H796.66v-4.73q0-62.37,0-124.72c0-8.14-3.31-11.49-11.38-11.5H724.8c-9,0-12.13,3.07-12.13,12q0,61.74,0,123.47v4.67H679.91V597.86c0-8.12-3.32-11.47-11.41-11.48H608c-9,0-12.12,3.08-12.12,12V778.82Z" transform="translate(-417.78 -95)"/><path class="cls-3" d="M595.91,778.82V598.4c0-8.94,3.11-12,12.12-12H668.5c8.09,0,11.41,3.36,11.41,11.48V779.44h32.76v-4.67q0-61.74,0-123.47c0-8.93,3.11-12,12.13-12h60.48c8.07,0,11.38,3.36,11.38,11.5q0,62.36,0,124.72v4.73h32.76V620.07c0-8.72,3.14-11.85,11.88-11.85h60.89c7.84,0,11.22,3.4,11.23,11.23V780.93h32.76V522.18c0-9.27,3-12.24,12.32-12.24q30.24,0,60.47,0c7.84,0,11.2,3.39,11.2,11.26q0,127.44,0,254.9v5.38h32.76V414.17c0-9.67,2.87-12.58,12.4-12.58h58.37c10.56,0,13.23,2.62,13.23,13V782.49c11.16,0,21.91,0,32.65,0a35.47,35.47,0,0,1,6.27.42,7.68,7.68,0,0,1,6.64,7.52c.09,3.88-2.17,6.83-6.25,7.78a23.76,23.76,0,0,1-5.4.49q-234.73-1.37-469.48-2.78-76.64-.47-153.27-1a39.4,39.4,0,0,1-5.86-.28,7.83,7.83,0,0,1-6.93-7.29c-.22-4,2.12-7.13,6.41-8.08a24.41,24.41,0,0,1,5.41-.43C569.85,778.81,582.59,778.82,595.91,778.82Zm482.37-362V777.64h53.3V416.83Zm-63.47,361V525.32H961.54V777.78ZM611.27,601.61V776.8h53.28V601.61Zm233.38,176h53.4v-154h-53.4ZM728,654.53V776.8H781.3V654.53Z" transform="translate(-417.78 -95)"/><path class="cls-4" d="M507.13,560.41c-1-3.75-2.32-7.44-2.79-11.25-.85-6.94,2.64-12.19,7.93-16.14q62.36-46.57,124.82-93c13.09-9.73,26.19-19.47,39.56-28.81,8.37-5.85,19.51-4.11,26.15,3.76,14.94,17.7,29.67,35.58,44.52,53.36q18,21.54,36,43c6.71,8,13.4,16.05,20.39,24.43,10.22-11.17,20.33-22.27,30.48-33.33,7.56-8.23,15.19-16.39,22.75-24.62Q884.46,447.9,911.93,418c10.87-11.82,21.84-23.55,32.71-35.38q26.91-29.29,53.77-58.65c7.27-7.93,14.62-15.78,21.86-23.73a38,38,0,0,0,3.07-4.4l4.68-3.15c-3.35-2.82-6-5.13-8.69-7.28-5.21-4.12-10.49-8.15-15.74-12.22-5.64-6-4.58-9.77,3.32-12.73q45.3-17,90.52-34.11c6.45-2.45,9.78-.19,9.7,6.8,0,.37.33.74.5,1.12-1,4.69-2.14,9.36-2.94,14.09-2.51,14.64-4.88,29.29-7.32,43.94-2.12,12.73-4.06,25.49-6.48,38.17-1.48,7.76-6.05,8.77-12.06,3.59-7.56-6.53-15.45-12.68-23.55-19.27-4.85,5.42-9.41,10.63-14.09,15.74q-19.21,21-38.52,41.89-19.39,21.09-38.82,42.18-14.16,15.4-28.3,30.82l-38.82,42.19q-14.6,15.85-29.2,31.7c-11.77,12.68-23.64,25.28-35.39,38-4.07,4.39-8.15,8.8-11.85,13.51-9.37,11.94-24.12,11.94-32.63,1.18-2.5-3.16-5.11-6.24-7.7-9.34q-25.85-30.92-51.72-61.83c-13.77-16.44-27.65-32.79-41.34-49.29-1.67-2-2.61-2.32-4.65-.66-3.78,3.07-7.77,5.88-11.69,8.78q-24.84,18.4-49.69,36.8-24.3,18.08-48.52,36.25-19.4,14.52-38.76,29.08c-4.14,3.09-8.82,5.11-14,3.7C515.33,564.26,511.29,562.12,507.13,560.41Z" transform="translate(-417.78 -95)"/><path class="cls-5" d="M507.13,560.41c4.16,1.71,8.2,3.85,12.5,5,5.14,1.41,9.82-.61,14-3.7q19.41-14.51,38.76-29.08,24.24-18.15,48.52-36.25,24.81-18.45,49.69-36.8c3.92-2.9,7.91-5.71,11.69-8.78,2-1.66,3-1.36,4.65.66,13.69,16.5,27.57,32.85,41.34,49.29Q754.13,531.66,780,562.6c2.59,3.1,5.2,6.18,7.7,9.34,8.51,10.76,23.26,10.76,32.63-1.18,3.7-4.71,7.78-9.12,11.85-13.51,11.75-12.7,23.62-25.3,35.39-38q14.65-15.79,29.2-31.7l38.82-42.19q14.16-15.4,28.3-30.82,19.41-21.09,38.82-42.18,19.27-20.94,38.52-41.89c4.68-5.11,9.24-10.32,14.09-15.74,8.1,6.59,16,12.74,23.55,19.27,6,5.18,10.58,4.17,12.06-3.59,2.42-12.68,4.36-25.44,6.48-38.17,2.44-14.65,4.81-29.3,7.32-43.94.8-4.73,2-9.4,2.94-14.09,5.47,1.15,6.83,3.28,6,8.7-3.16,19.82-6.18,39.65-9.39,59.46-2,12.56-4.13,25.12-6.58,37.6-1.53,7.76-9,10-15,5-6.51-5.42-13.1-10.74-19.54-16.25-1.82-1.55-3.17-1.41-4.67.16-3.86,4-7.77,8-11.56,12.13q-19.33,20.94-38.6,42-31.17,34-62.31,68c-17.59,19.13-35.29,38.17-52.91,57.28Q868.7,534.61,844.45,561c-6.91,7.5-14.13,14.75-20.71,22.54-6.89,8.16-25,7.82-31.39-.12-8.66-10.74-17.84-21.06-26.73-31.62Q749.33,532.44,733.14,513c-12.24-14.66-24.61-29.21-36.65-44-7.13-8.78-6.82-8.89-16-2q-44.87,33.41-89.8,66.71Q564.78,552.91,539,572.24c-8.87,6.61-24.08,4-29.68-5.18C508.1,565.13,507.82,562.64,507.13,560.41Z" transform="translate(-417.78 -95)"/><path class="cls-5" d="M1003.59,273.15c5.25,4.07,10.53,8.1,15.74,12.22,2.73,2.15,5.34,4.46,8.69,7.28l-4.68,3.15c-6.29-4.89-12.71-9.63-18.81-14.74C1002.11,279,1001.76,276.05,1003.59,273.15Z" transform="translate(-417.78 -95)"/><path class="cls-6" d="M1078.28,416.83h53.3V777.64h-53.3Z" transform="translate(-417.78 -95)"/><path class="cls-6" d="M1014.81,777.78H961.54V525.32h53.27Z" transform="translate(-417.78 -95)"/><path class="cls-6" d="M611.27,601.61h53.28V776.8H611.27Z" transform="translate(-417.78 -95)"/><path class="cls-6" d="M844.65,777.6v-154h53.4v154Z" transform="translate(-417.78 -95)"/><path class="cls-6" d="M728,654.53H781.3V776.8H728Z" transform="translate(-417.78 -95)"/></svg>