<svg id="圖層_4" data-name="圖層 4" xmlns="http://www.w3.org/2000/svg" viewBox="0 0 957.58 957.44"><defs><style>.cls-1{fill:#6b289f;}.cls-2{fill:#ab3ffe;}.cls-3{fill:#030204;}.cls-4{fill:#575459;}.cls-5{fill:#565357;}.cls-6{fill:#565358;}.cls-7{fill:#545058;}.cls-8{fill:#aa3efd;}.cls-9{fill:#ab3ffd;}.cls-10{fill:#aa3efc;}.cls-11{fill:#cfabe6;}.cls-12{fill:#a93efa;}.cls-13{fill:#aa3efb;}.cls-14{fill:#a93efb;}.cls-15{fill:#cfade7;}.cls-16{fill:#d6b4f0;}.cls-17{fill:#575558;}.cls-18{fill:#565258;}.cls-19{fill:#565458;}.cls-20{fill:#020204;}.cls-21{fill:#6f00bf;}</style></defs><path class="cls-1" d="M1008.54,72c4.45.54,8.89,1.2,13.35,1.6C1149,85,1255.54,137.93,1340.78,232.67c63.09,70.13,101.33,152.52,115.73,245.79,4.46,28.94,7.11,58.1,5.69,87.41-6.13,126.34-52.41,235.39-142.23,324.93-67.79,67.57-149.22,110.5-243.06,129.44-49.56,10-99.54,11.67-149.83,5.87-161.69-18.63-303.39-119.88-374.67-266.54a475.79,475.79,0,0,1-45.34-158.93c-.52-4.84-1.37-9.64-2.07-14.46V515.26c.7-4.82,1.36-9.65,2.1-14.46,2.44-15.9,4.22-31.95,7.5-47.68,17.48-83.83,54.55-158.07,112-221.49q127.7-140.88,317.58-158c4.32-.39,8.6-1.09,12.9-1.64Zm417.68,478.71c.89-243.14-196.54-442-439.77-443.08-119.27-.51-223.17,40.43-309.31,122.91-90.74,86.88-136.69,194.6-137,320-.26,117.92,41,221.09,122.87,306.32C749.4,946.71,856,992.73,980.7,993.77,1228.05,995.85,1427.27,794.27,1426.22,550.71Z" transform="translate(-505 -72)"/><path class="cls-2" d="M1426.22,550.71c1,243.56-198.17,445.14-445.52,443.06-124.71-1-231.3-47.06-317.65-136.95-81.87-85.23-123.13-188.4-122.87-306.32.27-125.36,46.22-233.08,137-320,86.14-82.48,190-123.42,309.31-122.91C1229.68,108.67,1427.11,307.57,1426.22,550.71ZM1153,748.24c7.36.09,14.72.42,22.07.22,18.09-.47,35.86-3.11,52.33-11,24.22-11.55,39-30,40-57.76a5.57,5.57,0,0,1,3.49-5.46c19.14-9.78,32.2-36.08,22.46-59.41-6.22-14.92-16.37-25.28-32.26-29.5-8.17-3-16.5-5.07-25.31-4.24l-8.24.79-23.18-29.21c.59-.76,1.24-1.73,2-2.58,16.65-18.1,31.48-37.54,43.19-59.22,10.84-20,18.77-40.89,18-64.3-.78-22.42-10.78-39.49-29.07-51.79-4.92-3.31-10.75-5.25-16.15-7.81l-1.89-.88a1,1,0,0,0-.54-.29l-1.26-.48c-8-2.31-16-5.15-24.15-6.85-27.57-5.71-55.14-3.65-82.67.65q-8.64,1.35-17.27,2.76a285.38,285.38,0,0,0-21.78-53c-10.5-19.82-22.94-38.23-40.74-52.36-7-5.58-14.41-10.75-23.43-12.78a1.16,1.16,0,0,0-.59-.33l-1.26-.42a2.16,2.16,0,0,0-.57-.28l-1.23-.37c-19.66-7.1-38.92-6.66-57.14,4.12-4.95,2.93-8.88,3.22-14.23,1.36-21.78-7.58-42.49-.86-53.75,16.86-10.94,17.22-8.55,38.87,5.8,53.81,1.09,1.14,2.2,3.46,1.75,4.66-5,13.38-10.3,26.65-15.65,40.29-.78-.1-1.92-.22-3.06-.38-17.82-2.52-35.56-5.87-53.46-7.39-24.94-2.11-49.64-.09-73,10-20.58,8.88-34.91,23.55-40,45.89-4,17.42-.94,34.38,4.93,50.9,9.22,26,24.37,48.43,41.59,69.62,5,6.16,10.33,12.08,15.63,18.26-.84,1-1.55,2-2.29,2.84-6.8,8.17-13.73,16.24-20.35,24.56-1.87,2.36-3.4,2.8-6.26,2-20.92-5.82-41.92,3.75-51.15,23.1A42.91,42.91,0,0,0,698.78,657c2.49,1.74,2.91,3.36,2.52,6.21-1.89,13.91-.42,27.44,6,40.13,11,21.84,30.6,31.85,52.83,38.21a10.58,10.58,0,0,0,2.23,1.31c15.52,4.52,31.49,6.15,47.52,6a301.29,301.29,0,0,0,63.78-7.45c4.64,12.11,8.82,24.41,14,36.28,9.6,22,21.59,42.62,38.56,60A94,94,0,0,0,972,863.79a8.13,8.13,0,0,0,1.51.8c16,4.3,31,1.36,45.2-6.31,20.13-10.86,34.07-27.92,45.88-46.94,13-20.9,22.39-43.45,29.82-66.85,1-3.15,1.9-4.35,5.79-3.56,11.44,2.32,23,4,34.58,5.68C1140.83,747.47,1147,747.72,1153,748.24Z" transform="translate(-505 -72)"/><path class="cls-3" d="M760.08,741.55c-22.23-6.36-41.85-16.37-52.83-38.21-6.37-12.69-7.84-26.22-6-40.13.39-2.85,0-4.47-2.52-6.21a42.91,42.91,0,0,1-14.47-54.13c9.23-19.35,30.23-28.92,51.15-23.1,2.86.79,4.39.35,6.26-2,6.62-8.32,13.55-16.39,20.35-24.56.74-.88,1.45-1.79,2.29-2.84-5.3-6.18-10.62-12.1-15.63-18.26-17.22-21.19-32.37-43.66-41.59-69.62-5.87-16.52-8.89-33.48-4.93-50.9,5.08-22.34,19.41-37,40-45.89,23.37-10.08,48.07-12.1,73-10,17.9,1.52,35.64,4.87,53.46,7.39,1.14.16,2.28.28,3.06.38,5.35-13.64,10.65-26.91,15.65-40.29.45-1.2-.66-3.52-1.75-4.66-14.35-14.94-16.74-36.59-5.8-53.81,11.26-17.72,32-24.44,53.75-16.86,5.35,1.86,9.28,1.57,14.23-1.36,18.22-10.78,37.48-11.22,57.14-4.12l1.23.37a2.16,2.16,0,0,1,.57.28l1.26.42a1.16,1.16,0,0,1,.59.33,23.29,23.29,0,0,0,2.7,2.07c13.5,7.53,24.31,18.08,33.67,30.19,19.09,24.7,31.17,52.94,41,82.26,2.09,6.22,2.12,6.29,8.55,3.63q8.64-1.4,17.27-2.76c27.53-4.3,55.1-6.36,82.67-.65,8.17,1.7,16.11,4.54,24.15,6.85l1.26.48a1,1,0,0,1,.54.29l1.89.88a21.63,21.63,0,0,0,2.62,2.09c17.75,10.12,29.52,24.73,33.32,45.08,3.1,16.59.07,32.66-5.44,48.25-9.08,25.65-24,47.91-41,68.89-5.26,6.5-10.83,12.76-16,18.79,8.77,10.93,17.22,21.52,25.75,32,1.92,2.37,4.05,1.87,6-.23l8.24-.79c8.81-.83,17.14,1.26,25.31,4.24,1.18.84,2.31,1.77,3.55,2.51,15.42,9.34,23.54,23.64,23.55,41,0,18.54-9,33.23-25.67,42.45-2.19,1.21-3.16,2.49-3.27,5.1-1.26,31.42-20.8,51.35-47.46,61.21-12.38,4.58-25.3,6.62-38.4,7.59l-3.56.45-2.64.11-2.65,0H1153c-20.76-1.2-41.38-3.55-61.66-8.26-3.11-.72-4.09.39-5.07,3.09-4.21,11.65-8.26,23.38-13.12,34.76-10.87,25.44-24.48,49.19-45.54,67.76-14.7,13-31.53,21-51.66,20.41-1.32,0-2.65.11-4,.17a94,94,0,0,1-45.85-26.13c-17-17.35-29-37.95-38.56-60-5.18-11.87-9.36-24.17-14-36.28-.46-2.33-.56-4.72-4.21-4.09-14.48,2.47-28.92,5.42-43.51,6.9a263.6,263.6,0,0,1-36.54.7C779.56,744.55,769.83,742.73,760.08,741.55ZM898.5,388.65h0l-2.85-.63a1.51,1.51,0,0,1-.61-.26L884.67,384c-5.24,11.41-16.41,71.32-14.36,77.57l8.65-6Q912.43,436.3,945.9,417c4-2.31,8.29-4.24,13.28-6.77-2.29-1-3.69-1.7-5.15-2.22q-26.37-9.37-52.77-18.69ZM966,843.24l0,0,3.73,1.44c3.78.49,7.57,1.46,11.34,1.39,15.57-.32,27.76-8.1,38.54-18.44,16.47-15.8,27.7-35.18,36.74-55.84,5.42-12.37,10-25.11,15-37.91-1.56-.53-2.23-.8-2.91-1a655.11,655.11,0,0,1-76.91-27.47,42.39,42.39,0,0,0-5.88-1.58c-2.31-3.12-5-3.73-8.75-2.26-19.35,7.56-38.72,15.09-58.24,22.23-9.64,3.53-19.6,6.2-29.61,9.32a47.51,47.51,0,0,0,1.29,4.75c4.23,11.16,8,22.52,12.91,33.4,10.26,22.9,22.53,44.59,42.3,60.88,5.5,4.53,11,9.43,18.65,10.27l0,0ZM752.33,720l5.56,2.38c7.89,1.73,15.71,4.11,23.7,5.09,27.29,3.33,54.13-.54,80.88-5.73,4.17-.81,4.85-2.17,3.8-6.11a585,585,0,0,1-15.7-86.11,11.47,11.47,0,0,0-4-6.74c-15.15-12.46-30.6-24.56-45.76-37-6.59-5.42-12.71-11.43-19.05-17.16l-5.73-6.16c-7.09,8.66-13.64,16.78-20.37,24.75-2.05,2.42-1.33,3.87.56,5.93,11.86,12.87,14.12,33.84,5.39,49s-22.21,22.63-39.7,22.8c-2.11,0-4-.35-4.24,2.88-1,14.75,1.86,28.31,12.7,39.07,6.17,6.11,13,11.57,22,13.1Zm95.24-211.14c.18-3.09.37-6.18.6-10a24.65,24.65,0,0,0-3.53,1.93c-17.71,15.28-35.37,30.63-53.12,45.87-3,2.58-3.36,4.46-.14,7.29,14.17,12.41,28.11,25.09,42.28,37.5,4.34,3.81,9.15,7.09,14.26,11v-4.74Q847.75,553.3,847.57,508.86Zm272.74,86.32a38.83,38.83,0,0,0,5.13-3.21q17.63-15.15,35.08-30.48c3.84-3.4,7.34-7.18,11.36-11.15a503.66,503.66,0,0,0-51-44.82c-2.75-2.21-5.49-4.43-8.47-6.84V602.45ZM1089.77,648c.36-2.77.73-5.54,1.08-8.17l-89.15,51.5,8.94,2.83,65.05,23.39A509.84,509.84,0,0,0,1089.77,648Zm-13-258.61-1.14-5c-17.35,3.47-67.7,21.23-74.13,26.2.7.41,1.28.76,1.87,1.09,22.74,12.77,45.52,25.47,68.2,38.35,5.51,3.13,10.67,6.86,16,10.22a8.77,8.77,0,0,0,2.78.63c-.06-.77-.13-1.54-.2-2.31-1.18-8.29-2-16.66-3.63-24.86C1083.55,418.87,1080.05,404.13,1076.76,389.35ZM877.35,644.5l-7.15-5.34-1.1.73a527.66,527.66,0,0,0,14.93,77l6.83-2.45a21.08,21.08,0,0,0,3.92-.62Q925.41,703,956,692.09a15.57,15.57,0,0,0,2.67-1.71c-1.35-.78-2.23-1.3-3.13-1.78-17-9.23-34-18.32-50.93-27.74C895.36,655.7,886.43,650,877.35,644.5ZM1101.18,722a12.92,12.92,0,0,0,2.49.81c16.4,2,32.76,4.76,49.22,5.7,19.1,1.09,38.09-.9,56.1-8.22,14.73-6,26.22-15.36,31.11-31.16a94.25,94.25,0,0,0,2-9.56c-21.08-4.29-38.67-12.14-46.61-32.89-7.89-20.59-2.52-38.47,12.63-53.92a11.88,11.88,0,0,0-.9-1.62q-8.92-11-17.88-22c-5.79-6.51-5.81-6.53-11.64-.75A510.67,510.67,0,0,1,1115.19,621c-4.32,3.08-5.71,6.78-6.48,11.6q-5.39,33.76-11.25,67.44c-1.18,6.76-3.16,13.38-4.9,20.61ZM897.59,369.91a3.29,3.29,0,0,0,.74.47,587.73,587.73,0,0,1,79,28.1,8.93,8.93,0,0,0,7.48,0q33-12.64,66.18-24.87c6.42-2.35,13.13-3.89,19.88-5.86-1-3.19-1.88-5.85-2.78-8.49-8.9-25.92-19.66-50.94-36.47-72.86-8.86-11.55-18.82-22-32.79-27.57l-1.18-.25a2.76,2.76,0,0,1-.74-.28c-11-6.79-33.79-4.08-44.08,5.38.89,1.76,1.83,3.58,2.73,5.42a43.28,43.28,0,0,1-12.25,53c-10.76,8.28-22.78,11.32-36.23,8.3-1.42-.31-4.23.45-4.64,1.44-4.83,11.69-9.33,23.52-14.14,35.89Zm-30.83,11.46c-.7-.59-1.32-1.57-2.12-1.74-24.25-5.06-48.64-8.68-73.55-7.2-13.9.82-27.57,2.7-40.47,8.18-13.92,5.91-25.24,14.54-30.31,29.61-4.68,13.92-3,27.69,1.16,41.26,10.16,32.75,30.52,59.2,52.84,84.38,2.94,3.32,4.12.52,5.47-1.62a9.17,9.17,0,0,0,1.47-1,628.6,628.6,0,0,1,67.11-56.41c1.29-.94,2-3.16,2.29-4.9,3.68-22.28,7.11-44.59,10.88-66.85C862.89,397.12,865,389.28,866.76,381.37Zm319.12,153.44a26.34,26.34,0,0,0,2.63-2.31c14.93-16.79,28.46-34.6,38.91-54.59,7.62-14.59,13.62-29.7,14.67-46.4,1.16-18.45-4.7-33.76-20.45-44.2-5-3.29-10.8-5.25-16.24-7.82l-1.26-.28a2,2,0,0,1-.6-.34c-1.16-.57-2.27-1.47-3.49-1.65-13.08-1.86-26.15-4.79-39.28-5.12-21.53-.54-42.86,2.48-63.92,7.2-3.56.8-4.22,1.68-3.3,5.17a551.64,551.64,0,0,1,15.39,84.61c.29,2.84,1.28,6.6,3.3,8.12,24.23,18.12,47.52,37.32,69,58.67C1183.42,538.06,1185,538.05,1185.88,534.81Zm-199.38-112c-3.54-3.24-7-3.73-11.55-1.29-10.1,5.47-20.57,10.24-30.75,15.56a638,638,0,0,0-75,46,8.13,8.13,0,0,0-3.17,5.28c-1.09,17.21-2.67,34.44-2.57,51.65.13,24.16,1.49,48.32,2.58,72.47a8.45,8.45,0,0,0,3.41,5.57,720.46,720.46,0,0,0,106.71,61.79c1.47.7,3.3.63,5,.92a13.09,13.09,0,0,0,1.68-.51,709.34,709.34,0,0,0,108.33-62.68,7.61,7.61,0,0,0,2.65-5,693.71,693.71,0,0,0-.08-123.89,9.23,9.23,0,0,0-3.47-5.93,672.63,672.63,0,0,0-82.56-49.88C1000.72,429.23,993.56,426.11,986.5,422.78ZM1271.1,629a31.13,31.13,0,1,0-62.26.15c0,17.13,14.26,31.4,31.22,31.26A31.34,31.34,0,0,0,1271.1,629ZM723.42,594.7a26.73,26.73,0,0,0-26.9,27,27,27,0,0,0,53.93-.24A26.47,26.47,0,0,0,723.42,594.7ZM916.47,261.56c-14.66-.88-27,12.66-26.74,26.83a27,27,0,0,0,27,26.41c15-.17,26.67-13,26.5-27.34C943.09,275.32,932,260.63,916.47,261.56Z" transform="translate(-505 -72)"/><path class="cls-4" d="M1227.57,581.92c-1.91,2.1-4,2.6-6,.23-8.53-10.52-17-21.11-25.75-32,5.13-6,10.7-12.29,16-18.79,17-21,31.93-43.24,41-68.89,5.51-15.59,8.54-31.66,5.44-48.25-3.8-20.35-15.57-35-33.32-45.08a22.53,22.53,0,0,1-2.63-2.09c5.41,2.56,11.24,4.5,16.16,7.81,18.29,12.3,28.29,29.37,29.07,51.79.82,23.41-7.11,44.26-18,64.3-11.71,21.68-26.54,41.12-43.19,59.22-.78.85-1.43,1.82-2,2.58Z" transform="translate(-505 -72)"/><path class="cls-4" d="M1173.42,745.25c13.1-1,26-3,38.4-7.59,26.66-9.86,46.2-29.79,47.46-61.21.11-2.61,1.08-3.89,3.27-5.1,16.65-9.22,25.68-23.91,25.67-42.45,0-17.38-8.13-31.68-23.55-41-1.24-.74-2.37-1.67-3.55-2.51,15.89,4.22,26,14.58,32.26,29.5,9.74,23.33-3.32,49.63-22.46,59.41a5.57,5.57,0,0,0-3.49,5.46c-1,27.77-15.77,46.21-40,57.76-16.47,7.85-34.24,10.49-52.33,11-7.35.2-14.71-.13-22.07-.22v-2.38h11.53l1.14,1.52,1.51-1.56,2.64-.11Z" transform="translate(-505 -72)"/><path class="cls-5" d="M1153,745.86v2.38c-6.08-.52-12.21-.77-18.24-1.63-11.57-1.65-23.14-3.36-34.58-5.68-3.89-.79-4.79.41-5.79,3.56-7.43,23.4-16.84,46-29.82,66.85-11.81,19-25.75,36.08-45.88,46.94-14.22,7.67-29.24,10.61-45.2,6.31a8.13,8.13,0,0,1-1.51-.8c1.32-.06,2.65-.21,4-.17,20.13.56,37-7.45,51.66-20.41,21.06-18.57,34.67-42.32,45.54-67.76,4.86-11.38,8.91-23.11,13.12-34.76,1-2.7,2-3.81,5.07-3.09C1111.66,742.31,1132.28,744.66,1153,745.86Z" transform="translate(-505 -72)"/><path class="cls-6" d="M1094.55,361.92c-6.43,2.66-6.46,2.59-8.55-3.63-9.86-29.32-21.94-57.56-41-82.26-9.36-12.11-20.17-22.66-33.67-30.19a23.29,23.29,0,0,1-2.7-2.07c9,2,16.4,7.2,23.43,12.78,17.8,14.13,30.24,32.54,40.74,52.36A285.38,285.38,0,0,1,1094.55,361.92Z" transform="translate(-505 -72)"/><path class="cls-7" d="M760.08,741.55c9.75,1.18,19.48,3,29.27,3.37a263.6,263.6,0,0,0,36.54-.7c14.59-1.48,29-4.43,43.51-6.9,3.65-.63,3.75,1.76,4.21,4.09a301.29,301.29,0,0,1-63.78,7.45c-16,.15-32-1.48-47.52-6A10.58,10.58,0,0,1,760.08,741.55Z" transform="translate(-505 -72)"/><path class="cls-4" d="M1222.33,367l-1.89-.88Z" transform="translate(-505 -72)"/><path class="cls-4" d="M1219.9,365.84l-1.26-.48Z" transform="translate(-505 -72)"/><path class="cls-6" d="M1008,243.44l-1.26-.42Z" transform="translate(-505 -72)"/><path class="cls-6" d="M1006.18,242.74l-1.23-.37Z" transform="translate(-505 -72)"/><path class="cls-8" d="M986.5,422.78c7.06,3.33,14.22,6.45,21.16,10a672.63,672.63,0,0,1,82.56,49.88,9.23,9.23,0,0,1,3.47,5.93,693.71,693.71,0,0,1,.08,123.89,7.61,7.61,0,0,1-2.65,5A709.34,709.34,0,0,1,982.79,680.2a13.09,13.09,0,0,1-1.68.51c-1.16-.64-2.28-1.34-3.47-1.91a702.85,702.85,0,0,1-99.46-58.16c-1.58-1.11-3.24-3.26-3.39-5-1.1-12.9-2.24-25.83-2.57-38.77-.72-28.75-.49-57.49,2.51-86.14a6.85,6.85,0,0,1,2.57-4.58C898.45,472.7,919.45,459,941,446.37,955.74,437.74,971.31,430.59,986.5,422.78Zm-19,188.5.07,0c8.45,3.56,17.25,4.28,26.28,3.3,23.88-2.61,41.22-15,50.66-36.7,11-25.38,5.91-48.73-13-68.78-6.48-6.88-14.31-12.21-23.83-14.41h0l-1.94-.66c-4.52-1.29-9-2.82-13.58-3.82-23.41-5.14-48.33,4.65-62.24,24.31a61.62,61.62,0,0,0-2.76,67.59c8.82,14.48,21.84,23.22,37.64,28.35Z" transform="translate(-505 -72)"/><path class="cls-9" d="M985.66,703.82a42.39,42.39,0,0,1,5.88,1.58,655.11,655.11,0,0,0,76.91,27.47c.68.19,1.35.46,2.91,1-5,12.8-9.6,25.54-15,37.91-9,20.66-20.27,40-36.74,55.84-10.78,10.34-23,18.12-38.54,18.44-3.77.07-7.56-.9-11.34-1.39L966,843.22l0,0-1.85-.85,0,0c-1-.82-2-1.62-3-2.48-7.2-6.49-15.17-12.34-21.45-19.63-17.66-20.52-28.48-44.92-37.62-70.11-1.68-4.64-3.1-9.38-4.41-13.38,21.66-7.55,42.81-14.71,63.8-22.35C969.81,711.47,977.65,707.4,985.66,703.82Z" transform="translate(-505 -72)"/><path class="cls-9" d="M1203.54,378.87a2,2,0,0,0,.6.34l1.26.28c5.44,2.57,11.28,4.53,16.24,7.82,15.75,10.44,21.61,25.75,20.45,44.2-1,16.7-7,31.81-14.67,46.4-10.45,20-24,37.8-38.91,54.59a26.34,26.34,0,0,1-2.63,2.31,35.13,35.13,0,0,0-3-3.2c-20.36-17-40.79-33.94-61.07-51.05a12.45,12.45,0,0,1-3.94-6.38c-1.1-5-1.26-10.21-2.08-15.29-2.61-16.1-5.16-32.22-8.11-48.26-1.67-9.05-4.09-18-6.21-27.11a22,22,0,0,1,3.1-1.16c6.2-1.18,12.39-2.47,18.63-3.39,19.4-2.86,38.84-5.27,58.5-3C1189,376.85,1196.26,377.91,1203.54,378.87Z" transform="translate(-505 -72)"/><path class="cls-9" d="M866.76,381.37c-1.77,7.91-3.87,15.75-5.23,23.73-3.77,22.26-7.2,44.57-10.88,66.85-.29,1.74-1,4-2.29,4.9a628.6,628.6,0,0,0-67.11,56.41,9.17,9.17,0,0,1-1.47,1,16.84,16.84,0,0,1-2.31-2c-6.22-7.68-12.7-15.18-18.52-23.16-14-19.17-25.73-39.48-31.08-63-2.85-12.51-3-24.89,2.26-36.81,6.3-14.19,18.07-22.54,32.29-26.85a152.07,152.07,0,0,1,33.23-6.35c13.15-.93,26.48-.28,39.67.66C845.85,377.57,856.28,379.8,866.76,381.37Z" transform="translate(-505 -72)"/><path class="cls-8" d="M996.9,258.35a2.76,2.76,0,0,0,.74.28l1.18.25c14,5.58,23.93,16,32.79,27.57,16.81,21.92,27.57,46.94,36.47,72.86.9,2.64,1.74,5.3,2.78,8.49-6.75,2-13.46,3.51-19.88,5.86q-33.2,12.18-66.18,24.87a8.93,8.93,0,0,1-7.48,0,587.73,587.73,0,0,0-79-28.1,3.29,3.29,0,0,1-.74-.47l13.29-37.23c20.36,4.73,36.88,0,48.82-16.11s11.22-33.31,1.51-50.48C972.46,259.06,984.08,256,996.9,258.35Z" transform="translate(-505 -72)"/><path class="cls-10" d="M781.79,568.61c6.34,5.73,12.46,11.74,19.05,17.16,15.16,12.45,30.61,24.55,45.76,37a11.47,11.47,0,0,1,4,6.74,585,585,0,0,0,15.7,86.11c1.05,3.94.37,5.3-3.8,6.11-26.75,5.19-53.59,9.06-80.88,5.73-8-1-15.81-3.36-23.71-5.09L752.33,720l0,0a16.45,16.45,0,0,0-2.3-1.9c-17.22-9.85-24.51-25.12-24.26-44.47.07-5.74.21-5.81,6.06-5.81a43.61,43.61,0,0,0,43.52-43.16c.1-12.39-4.44-23-13.42-32.29Z" transform="translate(-505 -72)"/><path class="cls-10" d="M1189.32,569.11q8.94,11,17.88,22a11.88,11.88,0,0,1,.9,1.62c-15.15,15.45-20.52,33.33-12.63,53.92,7.94,20.75,25.53,28.6,46.61,32.89a94.25,94.25,0,0,1-2,9.56c-4.89,15.8-16.38,25.18-31.11,31.16-18,7.32-37,9.31-56.1,8.22-16.46-.94-32.82-3.71-49.22-5.7a12.92,12.92,0,0,1-2.49-.81c.91-3.56,1.84-7.11,2.72-10.68a502.42,502.42,0,0,0,12.84-72.93c.63-6.6,2.76-11.35,8.5-15.72,16.3-12.41,31.85-25.8,47.61-38.92C1178.48,579,1183.83,574,1189.32,569.11Z" transform="translate(-505 -72)"/><path class="cls-11" d="M1271.1,629a31.34,31.34,0,0,1-31,31.41c-17,.14-31.21-14.13-31.22-31.26a31.13,31.13,0,1,1,62.26-.15Z" transform="translate(-505 -72)"/><path class="cls-12" d="M877.35,644.5c9.08,5.47,18,11.2,27.26,16.36,16.88,9.42,33.94,18.51,50.93,27.74.9.48,1.78,1,3.13,1.78a15.57,15.57,0,0,1-2.67,1.71Q925.42,703,894.78,713.78a21.08,21.08,0,0,1-3.92.62c-2.61-12-5.43-24-7.77-36.08C880.91,667.1,879.24,655.78,877.35,644.5Z" transform="translate(-505 -72)"/><path class="cls-13" d="M1076.76,389.35c3.29,14.78,6.79,29.52,9.79,44.35,1.65,8.2,2.45,16.57,3.63,24.86-19-11.2-38-22.52-57.07-33.56-7.36-4.26-15.08-7.87-23.59-12.27,8.51-3.32,16-6.55,23.72-9.18C1047.68,398.63,1062.24,394.06,1076.76,389.35Z" transform="translate(-505 -72)"/><path class="cls-14" d="M901.26,389.34Q927.65,398.69,954,408c1.46.52,2.86,1.22,5.15,2.22-5,2.53-9.24,4.46-13.28,6.77Q912.39,436.24,879,455.6c1.61-10.72,2.92-21.49,4.91-32.14,1.93-10.37,4.47-20.63,7-30.88.5-2.06.23-5.47,4.19-4.83a1.51,1.51,0,0,0,.61.26l2.85.63h0Z" transform="translate(-505 -72)"/><path class="cls-14" d="M1089.77,648a509.84,509.84,0,0,1-14.08,69.55l-65.06-23.39a14.08,14.08,0,0,1,2.75-2.71c13.84-7.52,27.86-14.72,41.56-22.48C1066.73,662.25,1078.17,655,1089.77,648Z" transform="translate(-505 -72)"/><path class="cls-14" d="M1120.92,505.52a503.66,503.66,0,0,1,51,44.82c-4,4-7.52,7.75-11.36,11.15q-17.41,15.38-35.08,30.48a38.83,38.83,0,0,1-5.13,3.21c.39-6.15,1.06-12.29,1.12-18.44.16-15.86.12-31.72,0-47.58C1121.43,521.28,1121.11,513.4,1120.92,505.52Z" transform="translate(-505 -72)"/><path class="cls-14" d="M847.57,508.86q.18,44.43.35,88.87a20.22,20.22,0,0,1-3-1.74c-8.84-7.36-17.79-14.6-26.42-22.2-7.5-6.61-14.63-13.62-22.49-21,12.06-10.76,23.51-21.17,35.2-31.31C836.41,517,842.1,513.06,847.57,508.86Z" transform="translate(-505 -72)"/><path class="cls-6" d="M986.5,422.78c-15.19,7.81-30.76,15-45.46,23.59C919.45,459,898.45,472.7,877.3,486.1a6.85,6.85,0,0,0-2.57,4.58c-3,28.65-3.23,57.39-2.51,86.14.33,12.94,1.47,25.87,2.57,38.77.15,1.79,1.81,3.94,3.39,5a702.85,702.85,0,0,0,99.46,58.16c1.19.57,2.31,1.27,3.47,1.91-1.66-.29-3.49-.22-5-.92A720.46,720.46,0,0,1,869.44,618a8.45,8.45,0,0,1-3.41-5.57c-1.09-24.15-2.45-48.31-2.58-72.47-.1-17.21,1.48-34.44,2.57-51.65a8.13,8.13,0,0,1,3.17-5.28,638,638,0,0,1,75-46c10.18-5.32,20.65-10.09,30.75-15.56C979.46,419.05,983,419.54,986.5,422.78Z" transform="translate(-505 -72)"/><path class="cls-15" d="M723.42,594.7a26.47,26.47,0,0,1,27,26.74,27,27,0,1,1-27-26.74Z" transform="translate(-505 -72)"/><path class="cls-16" d="M916.47,261.56c15.51-.93,26.62,13.76,26.76,25.9.17,14.35-11.51,27.17-26.5,27.34a27,27,0,0,1-27-26.41C889.45,274.22,901.81,260.68,916.47,261.56Z" transform="translate(-505 -72)"/><path class="cls-6" d="M866.76,381.37c-10.48-1.57-20.91-3.8-31.44-4.56-13.19-.94-26.52-1.59-39.67-.66a152.07,152.07,0,0,0-33.23,6.35c-14.22,4.31-26,12.66-32.29,26.85-5.3,11.92-5.11,24.3-2.26,36.81,5.35,23.48,17.11,43.79,31.08,63,5.82,8,12.3,15.48,18.52,23.16a16.84,16.84,0,0,0,2.31,2c-1.35,2.14-2.53,4.94-5.47,1.62-22.32-25.18-42.68-51.63-52.84-84.38-4.21-13.57-5.84-27.34-1.16-41.26,5.07-15.07,16.39-23.7,30.31-29.61,12.9-5.48,26.57-7.36,40.47-8.18,24.91-1.48,49.3,2.14,73.55,7.2C865.44,379.8,866.06,380.78,866.76,381.37Z" transform="translate(-505 -72)"/><path class="cls-17" d="M1189.32,569.11c-5.49,4.88-10.84,9.91-16.47,14.61-15.76,13.12-31.31,26.51-47.61,38.92-5.74,4.37-7.87,9.12-8.5,15.72a502.42,502.42,0,0,1-12.84,72.93c-.88,3.57-1.81,7.12-2.72,10.68l-8.62-1.3c1.74-7.23,3.72-13.85,4.9-20.61q5.88-33.67,11.25-67.44c.77-4.82,2.16-8.52,6.48-11.6a510.67,510.67,0,0,0,62.49-52.66C1183.51,562.58,1183.53,562.6,1189.32,569.11Z" transform="translate(-505 -72)"/><path class="cls-18" d="M1203.54,378.87c-7.28-1-14.55-2-21.85-2.87-19.66-2.3-39.1.11-58.5,3-6.24.92-12.43,2.21-18.63,3.39a22,22,0,0,0-3.1,1.16c2.12,9.14,4.54,18.06,6.21,27.11,2.95,16,5.5,32.16,8.11,48.26.82,5.08,1,10.28,2.08,15.29a12.45,12.45,0,0,0,3.94,6.38c20.28,17.11,40.71,34,61.07,51.05a35.13,35.13,0,0,1,3,3.2c-.9,3.24-2.46,3.25-4.66,1.06-21.46-21.35-44.75-40.55-69-58.67-2-1.52-3-5.28-3.3-8.12a551.64,551.64,0,0,0-15.39-84.61c-.92-3.49-.26-4.37,3.3-5.17,21.06-4.72,42.39-7.74,63.92-7.2,13.13.33,26.2,3.26,39.28,5.12C1201.27,377.4,1202.38,378.3,1203.54,378.87Z" transform="translate(-505 -72)"/><path class="cls-19" d="M781.79,568.61,762,592.4c9,9.34,13.52,19.9,13.42,32.29a43.61,43.61,0,0,1-43.52,43.16c-5.85,0-6,.07-6.06,5.81-.25,19.35,7,34.62,24.26,44.47a16.45,16.45,0,0,1,2.3,1.9c-9-1.53-15.8-7-22-13.1-10.84-10.76-13.67-24.32-12.7-39.07.22-3.23,2.13-2.86,4.24-2.88,17.49-.17,30.91-7.49,39.7-22.8s6.47-36.18-5.39-49c-1.89-2.06-2.61-3.51-.56-5.93,6.73-8,13.28-16.09,20.37-24.75Z" transform="translate(-505 -72)"/><path class="cls-6" d="M985.66,703.82c-8,3.58-15.85,7.65-24.08,10.64-21,7.64-42.14,14.8-63.8,22.35,1.31,4,2.73,8.74,4.41,13.38,9.14,25.19,20,49.59,37.62,70.11,6.28,7.29,14.25,13.14,21.45,19.63,1,.86,2,1.66,3,2.48-7.63-.84-13.15-5.74-18.65-10.27-19.77-16.29-32-38-42.3-60.88-4.88-10.88-8.68-22.24-12.91-33.4a47.51,47.51,0,0,1-1.29-4.75c10-3.12,20-5.79,29.61-9.32,19.52-7.14,38.89-14.67,58.24-22.23C980.67,700.09,983.35,700.7,985.66,703.82Z" transform="translate(-505 -72)"/><path class="cls-19" d="M996.9,258.35c-12.82-2.4-24.44.71-35.69,7.74,9.71,17.17,10.4,34.37-1.51,50.48s-28.46,20.84-48.82,16.11l-13.29,37.23-9.3-2.17c4.81-12.37,9.31-24.2,14.14-35.89.41-1,3.22-1.75,4.64-1.44,13.45,3,25.47,0,36.23-8.3a43.28,43.28,0,0,0,12.25-53c-.9-1.84-1.84-3.66-2.73-5.42C963.11,254.27,985.85,251.56,996.9,258.35Z" transform="translate(-505 -72)"/><path class="cls-18" d="M847.57,508.86c-5.47,4.2-11.16,8.13-16.36,12.64-11.69,10.14-23.14,20.55-35.2,31.31,7.86,7.36,15,14.37,22.49,21,8.63,7.6,17.58,14.84,26.42,22.2a20.22,20.22,0,0,0,3,1.74v4.74c-5.11-3.93-9.92-7.21-14.26-11C819.49,579,805.55,566.36,791.38,554c-3.22-2.83-2.87-4.71.14-7.29,17.75-15.24,35.41-30.59,53.12-45.87a24.65,24.65,0,0,1,3.53-1.93C847.94,502.68,847.75,505.77,847.57,508.86Z" transform="translate(-505 -72)"/><path class="cls-5" d="M1120.92,505.52c.19,7.88.51,15.76.55,23.64.08,15.86.12,31.72,0,47.58-.06,6.15-.73,12.29-1.12,18.44l-7.86,7.27V498.68C1115.43,501.09,1118.17,503.31,1120.92,505.52Z" transform="translate(-505 -72)"/><path class="cls-5" d="M1089.77,648c-11.6,7-23,14.29-34.83,21-13.7,7.76-27.72,15-41.56,22.48a14.08,14.08,0,0,0-2.75,2.71l-8.93-2.83,89.15-51.5C1090.5,642.42,1090.13,645.19,1089.77,648Z" transform="translate(-505 -72)"/><path class="cls-19" d="M895,387.75c-4-.64-3.69,2.77-4.19,4.83-2.51,10.25-5.05,20.51-7,30.88-2,10.65-3.3,21.42-4.91,32.14l-8.65,6c-2-6.25,9.12-66.16,14.36-77.57Z" transform="translate(-505 -72)"/><path class="cls-7" d="M1076.76,389.35c-14.52,4.71-29.08,9.28-43.52,14.2-7.71,2.63-15.21,5.86-23.72,9.18,8.51,4.4,16.23,8,23.59,12.27,19.11,11,38.06,22.36,57.07,33.56.07.77.14,1.54.2,2.31a8.77,8.77,0,0,1-2.78-.63c-5.37-3.36-10.53-7.09-16-10.22-22.68-12.88-45.46-25.58-68.2-38.35-.59-.33-1.17-.68-1.87-1.09,6.43-5,56.78-22.73,74.13-26.2Z" transform="translate(-505 -72)"/><path class="cls-19" d="M877.35,644.5c1.89,11.28,3.56,22.6,5.74,33.82,2.34,12.08,5.16,24.06,7.77,36.08L884,716.85a527.66,527.66,0,0,1-14.93-77l1.1-.73Z" transform="translate(-505 -72)"/><path class="cls-19" d="M752.33,720l5.55,2.38Z" transform="translate(-505 -72)"/><path class="cls-5" d="M1173.42,745.25l-3.56.45Z" transform="translate(-505 -72)"/><path class="cls-5" d="M1167.22,745.81l-1.51,1.56-1.14-1.52Z" transform="translate(-505 -72)"/><path class="cls-6" d="M966,843.22l3.73,1.44Z" transform="translate(-505 -72)"/><path class="cls-19" d="M898.5,388.64l-2.85-.63Z" transform="translate(-505 -72)"/><path class="cls-19" d="M901.26,389.34l-2.76-.7Z" transform="translate(-505 -72)"/><path class="cls-6" d="M964.18,842.39l1.85.85Z" transform="translate(-505 -72)"/><path class="cls-18" d="M1205.4,379.49l-1.26-.28Z" transform="translate(-505 -72)"/><path class="cls-19" d="M998.82,258.88l-1.18-.25Z" transform="translate(-505 -72)"/><path class="cls-20" d="M964.88,610.49c-15.8-5.13-28.82-13.87-37.64-28.35A61.62,61.62,0,0,1,930,514.55c13.91-19.66,38.83-29.45,62.24-24.31,4.59,1,9.06,2.53,13.58,3.82l1.94.66h0a16,16,0,0,0,2.53,2.22c18.21,10.41,28.42,26.39,30.86,46.85,4.31,36.18-24.77,68.16-61.26,68.08-4.1,0-8.19-.37-12.28-.56l-.07,0Zm59.81-60.2c1-23-19.06-45-44.73-44.89a45,45,0,0,0-45,44.85c0,25.52,20.07,45.11,46.06,45C1004.14,595.23,1025.53,575.33,1024.69,550.29Z" transform="translate(-505 -72)"/><path class="cls-4" d="M967.6,611.3c4.09.19,8.18.55,12.28.56,36.49.08,65.57-31.9,61.26-68.08-2.44-20.46-12.65-36.44-30.86-46.85a16,16,0,0,1-2.53-2.22c9.52,2.2,17.35,7.53,23.83,14.41,18.87,20,24,43.4,13,68.78-9.44,21.75-26.78,34.09-50.66,36.7C984.85,615.58,976.05,614.86,967.6,611.3Z" transform="translate(-505 -72)"/><path class="cls-4" d="M964.88,610.49l2.65.79Z" transform="translate(-505 -72)"/><path class="cls-4" d="M1007.76,494.72l-1.94-.66Z" transform="translate(-505 -72)"/><path class="cls-21" d="M1024.69,550.29c.84,25-20.55,44.94-43.68,45-26,.07-46.08-19.52-46.06-45a45,45,0,0,1,45-44.85C1005.63,505.25,1025.73,527.26,1024.69,550.29Z" transform="translate(-505 -72)"/></svg>