<svg id="圖層_6" data-name="圖層 6" xmlns="http://www.w3.org/2000/svg" viewBox="0 0 925.5 925.53"><defs><style>.cls-1{fill:#9f8e28;}.cls-2{fill:#fee13f;}.cls-3{fill:#030303;}.cls-4{fill:#030302;}.cls-5{fill:#030201;}.cls-6{fill:#484845;}.cls-7{fill:#494843;}.cls-8{fill:#484745;}.cls-9{fill:#4b493f;}.cls-10{fill:#48463b;}.cls-11{fill:#49473b;}.cls-12{fill:#fae6ce;}.cls-13{fill:#f8d4a9;}.cls-14{fill:#fef9df;}.cls-15{fill:#fbd4a8;}.cls-16{fill:#fef8df;}.cls-17{fill:#fd7a78;}.cls-18{fill:#f83c39;}</style></defs><path class="cls-1" d="M1025.56,77c4.15.52,8.29,1.21,12.46,1.54A462.7,462.7,0,0,1,1459.84,598C1437,781.15,1305,934.63,1127.22,984.92c-45.64,12.91-92.22,19.18-139.59,17.27C850.4,996.65,736.51,941.86,647,837.71,595.27,777.53,562.24,707.8,547,630c-4-20.51-5.46-41.53-8.12-62.31a21.22,21.22,0,0,0-.84-3.1v-49.7a9.26,9.26,0,0,0,.8-2.24c1.16-11.63,2-23.31,3.45-34.9a447.72,447.72,0,0,1,42.33-140.56C656.75,189.6,799.81,92,963.41,78.55c3.88-.32,7.73-1,11.59-1.55Zm-25.11,891.14c237,.17,428.92-192.06,428.7-428.81-.21-236.15-191.46-427.48-427.32-428.05-237.66-.58-429.78,192.06-429.57,428.81C572.48,776.31,764,968,1000.45,968.14Z" transform="translate(-538 -77)"/><path class="cls-2" d="M1000.45,968.14c-236.47-.12-428-191.83-428.19-428-.21-236.75,191.91-429.39,429.57-428.81,235.86.57,427.11,191.9,427.32,428.05C1429.37,776.08,1237.4,968.31,1000.45,968.14Zm-65.7-377-6.18-1-2.37-.46c-6.57-1.8-13.24-3.27-19.68-5.45C888,578,870.66,569.8,857.19,554.9a282.27,282.27,0,0,0-20.38-20.11c-7.39-6.66-16.16-10.49-26.34-10.41l-1.6-.17c-.07-1.71-.2-3.42-.2-5.13,0-26.68.05-53.37-.09-80.06A61.55,61.55,0,0,0,807,425.91c-4.16-18.23-22.16-33.15-39.42-33-26.72-4.11-51.24,16.43-51.32,43.4-.14,51.09,0,102.18,0,153.26a73.21,73.21,0,0,0,.32,7.7c5.42,51.12,31.34,89.17,75,115.09,16.88,10,34.94,18,52.55,26.77,2.75,1.37,3.58,3,3.56,5.94-.13,16,.21,32-.19,47.94-.18,7,1.5,12.59,7.51,16.5,3.07,1.45,6.13,4.14,9.21,4.16,37.84.29,75.68.2,113.53.15a13.28,13.28,0,0,0,4.47-.9c7-2.6,8.14-8.5,8.14-15,0-46.84.09-93.68-.12-140.52a74.22,74.22,0,0,0-2.53-19.82c-5.92-20.7-18.8-35.45-39.24-43.13l-13.78-3.42Zm143.06-307.45c-7.7.1-15.49-.52-23.07.45-23.28,2.95-40.91,15.53-54.9,33.81a32,32,0,0,1-3.22-2.4c-5.85-5.63-11.19-11.9-17.56-16.84-12.19-9.44-26-15.12-41.78-15-4.71,0-9.42-.19-14.12-.09-19.2.4-36.82,6-51.16,18.78-31.48,28-41.16,63.58-33.44,104.26,4.08,21.51,15,39.9,28.46,56.82,17.7,22.19,38.58,41.22,60,59.72s42.91,36.72,64.38,55.06c6.41,6.83,11.79,7,19.2.58q20.89-18,41.84-36c26.14-22.54,52.65-44.7,75.07-71.17,27-31.85,40.65-67.73,32.54-109.87-4.82-25-16.3-46.44-37-62.09-11.54-8.74-24.53-14.31-39.19-15.33l-2.54-.5Zm167.82,109.9-1.52-.2-1.74-.17c-5.41.08-10.94-.54-16.21.38-21.74,3.8-36.44,21.45-36.56,43.69-.14,27.41,0,54.83,0,82.25v4.64c-14.39.58-25.39,6.68-34.65,16.64q-9.33,10-19.42,19.35a88.76,88.76,0,0,1-13.82,10.72A144.69,144.69,0,0,1,1079.4,588c-8.32,2-17,2.56-25.16,5-28.43,8.44-46.47,33.1-46.54,63.17-.11,45.84.09,91.68-.16,137.52,0,6.94,1.85,12.21,7.56,16.07,2.95,1.41,5.9,4,8.87,4,38.11.27,76.21.19,114.32.16a11.51,11.51,0,0,0,11.48-9.52,46.5,46.5,0,0,0,.74-8.07q.1-24.62,0-49.24c0-2.59.71-4.06,3.13-5.31,15.06-7.76,30.12-15.55,45-23.65,14.46-7.88,29.58-15,40.29-28.19,8.69-10.73,18.46-20.88,25.34-32.7C1276,637,1281.66,614.53,1281.72,591q.21-77.49,0-155a38.9,38.9,0,0,0-1.84-12.14C1274.26,407.31,1263.15,396.74,1245.63,393.55Z" transform="translate(-538 -77)"/><path class="cls-3" d="M855.07,809.56c-6-3.91-7.69-9.46-7.51-16.5.4-16,.06-32,.19-47.94,0-2.94-.81-4.57-3.56-5.94-17.61-8.75-35.67-16.76-52.55-26.77-43.69-25.92-69.61-64-75-115.09a73.21,73.21,0,0,1-.32-7.7c0-51.08-.13-102.17,0-153.26.08-27,24.6-47.51,51.32-43.4a5.11,5.11,0,0,0,1.45.84c19.82,3.67,35.48,23.12,34.84,45.05-.77,26.64-.18,53.32-.18,80v5.37h5.14l1.6.17c3.87,1.33,7.82,2.48,11.61,4,9.72,4,16,12.2,23.27,19.2,6.16,5.94,11.78,12.59,18.53,17.75,16.24,12.41,35.15,19.2,54.87,23.84,2.39.56,5,.33,7.45.47l2.37.46,6.18,1h0l12,4.25c25.71,12.43,39,33,39.21,61.47.32,40.53.08,81.07.08,121.6,0,6.42.06,12.85,0,19.27a12,12,0,0,1-11.92,11.92Q914.59,809.61,855.07,809.56Zm-73.43-280A19.77,19.77,0,0,0,782,527q0-44.73,0-89.45a19.55,19.55,0,0,0-.31-2.51,21.72,21.72,0,0,0-43.4,1.26c-.08,51.13-1,102.28.35,153.37,1.17,45,22.85,79.15,62.15,101.22,19.62,11,40.12,20.51,60.34,30.47,5.93,2.92,8.73,7,8.64,13.77-.2,17.12,0,34.25.12,51.38l.59.59.94.06.39.15.38-.16h10.34c.7.07,1.41.2,2.12.2q38.31,0,76.64,0a19.79,19.79,0,0,0,2.46-.29V718c0-21.27.31-42.53.07-63.79-.23-20.57-15.14-37.39-35.4-41.47-11.44-2.29-22.83-5.07-34-8.44-22.59-6.83-43-17.4-59-35.5a207.37,207.37,0,0,0-16.69-16.59,21.71,21.71,0,0,0-34,5.53c-4.83,8.79-3.25,18.9,4.43,26.64,18.21,18.32,36.54,36.53,54.75,54.86,5,5,5.09,11.56.62,16s-11.12,4.33-16-.56c-18.72-18.62-37.57-37.11-56-56.06-19.16-19.72-15.88-50.66,6.55-66.55A22.87,22.87,0,0,0,781.64,529.51Z" transform="translate(-538 -77)"/><path class="cls-4" d="M1015.1,809.7c-5.71-3.86-7.6-9.13-7.56-16.07.25-45.84.05-91.68.16-137.52.07-30.07,18.11-54.73,46.54-63.17,8.16-2.42,16.84-3,25.16-5a144.69,144.69,0,0,0,42.27-17.11,88.76,88.76,0,0,0,13.82-10.72q10.07-9.3,19.42-19.35c9.26-10,20.26-16.06,34.65-16.64V519.5c0-27.42-.1-54.84,0-82.25.12-22.24,14.82-39.89,36.56-43.69,5.27-.92,10.8-.3,16.21-.38l1.74.17,1.52.2a10,10,0,0,0,2.25,1.56c17.14,5.9,29.74,23.22,29.66,42.79-.19,44.81-.08,89.63-.06,134.44,0,13,.11,25.87-2.46,38.72-3,15.08-7.36,29.75-15.39,42.78-7.75,12.58-16.34,24.75-27.69,34.6-2.65,2.31-4.55,5.68-7.46,7.47-14.19,8.7-28.47,17.3-43,25.42-10.66,6-21.72,11.23-32.7,16.61-2.64,1.29-3.24,3-3.22,5.7.11,17.41.06,34.82,0,52.24,0,9.63-4.08,13.74-13.64,13.74Zm240-222c.07-1.13.21-2.27.21-3.41q0-73.23,0-146.47c0-1,0-2-.07-3A22,22,0,0,0,1233,414.75a21.6,21.6,0,0,0-21.24,20.44q-.12,46.56-.17,93.11c0,.86,1,1.71,1.55,2.57,1.1.89,2.19,1.8,3.3,2.67,20.24,15.84,23.09,45.49,5.36,64.07-18.63,19.52-38,38.34-57.13,57.36-4.7,4.67-11.45,4.57-15.73.21s-4.3-10.75.37-15.7c2.94-3.11,6-6.08,9.07-9.11,15.54-15.55,31.14-31,46.6-46.69a21.5,21.5,0,0,0,3.09-27.14,21.23,21.23,0,0,0-25.35-9,31.91,31.91,0,0,0-10.17,6.78c-10.35,9.61-19.59,20.62-30.79,29.06-21.07,15.9-45.4,25-71.58,28.54-25.13,3.36-40.54,20.31-40.55,45.69q0,62.55,0,125.09c0,1.27.15,2.54.23,3.82a15.36,15.36,0,0,0,3.4.79q43.46.06,86.91,0c1.1,0,2.2-.13,3.72-.21v-4.38c0-16,.13-32-.07-48-.08-6.17,2.27-10.28,7.81-12.95,9-4.31,17.8-9,26.81-13.27,19-9,37.6-18.47,53.68-32.27C1224,666.18,1235.35,656,1242,641.16,1249.68,624,1255.28,606.65,1255.1,587.71Z" transform="translate(-538 -77)"/><path class="cls-5" d="M991.36,578.18c-21.47-18.34-43-36.58-64.38-55.06s-42.26-37.53-60-59.72c-13.5-16.92-24.38-35.31-28.46-56.82-7.72-40.68,2-76.25,33.44-104.26,14.34-12.76,32-18.38,51.16-18.78,4.7-.1,9.41,0,14.12.09a3.91,3.91,0,0,0,1.14.53c22.68,2.63,39.74,14.73,53.78,31.91,1.47,1.8,3,3.58,4.66,5.64l3-3.8c14-18.28,31.62-30.86,54.9-33.81,7.58-1,15.37-.35,23.07-.45l3.51.16,2.54.5a14.1,14.1,0,0,0,2.26.92c13.19,2.86,25.27,8.26,35.51,17,22.38,19.07,33.33,44.12,35.7,72.87,1.64,19.93-2.45,39.07-11.12,57.24-10.17,21.33-25.06,39.13-41.83,55.29-16.2,15.6-33.22,30.37-50.07,45.28-15.46,13.69-31.22,27-46.76,40.64C1002.81,577.69,997.92,580.69,991.36,578.18Zm130.46-242.69c-1.94-2.64-3.74-5.39-5.85-7.89-20.92-24.84-65.43-33.66-93.1-2.93-5.59,6.21-10.93,13-14.69,20.42-5.77,11.33-18.09,10.65-22.6.21-1.79-4.13-4.67-7.84-7.33-11.55C952.79,298.34,906.54,295.16,878,327c-12.66,14.13-18.81,31.13-20,49.92-1.66,26,7.53,48.47,23.13,68.61,23.44,30.27,53,54.24,81.86,78.9,10.07,8.81,20.24,17.5,30.13,26.51,2.86,2.61,4.49,2.46,7.32,0,16.83-14.75,33.89-29.22,50.79-43.88,21-18.23,41.85-36.62,59.22-58.54,18-22.74,28.31-48,24.72-77.52C1133.61,358.14,1129.48,346.11,1121.82,335.49Z" transform="translate(-538 -77)"/><path class="cls-6" d="M1015.1,809.7l116.87-.08c9.56,0,13.64-4.11,13.64-13.74,0-17.42.06-34.83,0-52.24,0-2.73.58-4.41,3.22-5.7,11-5.38,22-10.65,32.7-16.61,14.53-8.12,28.81-16.72,43-25.42,2.91-1.79,4.81-5.16,7.46-7.47,11.35-9.85,19.94-22,27.69-34.6,8-13,12.39-27.7,15.39-42.78,2.57-12.85,2.47-25.76,2.46-38.72,0-44.81-.13-89.63.06-134.44.08-19.57-12.52-36.89-29.66-42.79a10,10,0,0,1-2.25-1.56c17.52,3.19,28.63,13.76,34.22,30.3a38.9,38.9,0,0,1,1.84,12.14q.18,77.51,0,155c-.06,23.54-5.71,46-17.47,66.22-6.88,11.82-16.65,22-25.34,32.7-10.71,13.22-25.83,20.31-40.29,28.19-14.88,8.1-29.94,15.89-45,23.65-2.42,1.25-3.14,2.72-3.13,5.31q.15,24.62,0,49.24a46.5,46.5,0,0,1-.74,8.07,11.51,11.51,0,0,1-11.48,9.52c-38.11,0-76.21.11-114.32-.16C1021,813.71,1018.05,811.11,1015.1,809.7Z" transform="translate(-538 -77)"/><path class="cls-7" d="M991.36,578.18c6.56,2.51,11.45-.49,16.19-4.64,15.54-13.6,31.3-26.95,46.76-40.64,16.85-14.91,33.87-29.68,50.07-45.28,16.77-16.16,31.66-34,41.83-55.29,8.67-18.17,12.76-37.31,11.12-57.24-2.37-28.75-13.32-53.8-35.7-72.87-10.24-8.73-22.32-14.13-35.51-17a14.1,14.1,0,0,1-2.26-.92c14.66,1,27.65,6.59,39.19,15.33,20.66,15.65,32.14,37.05,37,62.09,8.11,42.14-5.59,78-32.54,109.87-22.42,26.47-48.93,48.63-75.07,71.17q-20.89,18-41.84,36C1003.15,585.15,997.77,585,991.36,578.18Z" transform="translate(-538 -77)"/><path class="cls-8" d="M855.07,809.56q59.52,0,119,.05A12,12,0,0,0,986,797.69c.08-6.42,0-12.85,0-19.27,0-40.53.24-81.07-.08-121.6-.23-28.45-13.5-49-39.21-61.47l1.78-.83C969,602.2,981.85,617,987.77,637.65a74.22,74.22,0,0,1,2.53,19.82c.21,46.84.11,93.68.12,140.52,0,6.48-1.1,12.38-8.14,15a13.28,13.28,0,0,1-4.47.9c-37.85,0-75.69.14-113.53-.15C861.2,813.7,858.14,811,855.07,809.56Z" transform="translate(-538 -77)"/><path class="cls-9" d="M808.87,524.21h-5.14v-5.37c0-26.67-.59-53.35.18-80,.64-21.93-15-41.38-34.84-45.05a5.11,5.11,0,0,1-1.45-.84c17.26-.2,35.26,14.72,39.42,33A61.55,61.55,0,0,1,808.58,439c.14,26.69.07,53.38.09,80.06C808.67,520.79,808.8,522.5,808.87,524.21Z" transform="translate(-538 -77)"/><path class="cls-10" d="M926.2,589.67c-2.49-.14-5.06.09-7.45-.47-19.72-4.64-38.63-11.43-54.87-23.84-6.75-5.16-12.37-11.81-18.53-17.75-7.27-7-13.55-15.23-23.27-19.2-3.79-1.55-7.74-2.7-11.61-4,10.18-.08,18.95,3.75,26.34,10.41a282.27,282.27,0,0,1,20.38,20.11C870.66,569.8,888,578,906.52,584.22,913,586.4,919.63,587.87,926.2,589.67Z" transform="translate(-538 -77)"/><path class="cls-11" d="M999.84,317.91l-3,3.8c-1.7-2.06-3.19-3.84-4.66-5.64-14-17.18-31.1-29.28-53.78-31.91a3.91,3.91,0,0,1-1.14-.53c15.76-.08,29.59,5.6,41.78,15,6.37,4.94,11.71,11.21,17.56,16.84A32,32,0,0,0,999.84,317.91Z" transform="translate(-538 -77)"/><path class="cls-10" d="M948.53,594.52l-1.78.83-12-4.25Z" transform="translate(-538 -77)"/><path class="cls-10" d="M934.75,591.1l-6.18-1Z" transform="translate(-538 -77)"/><path class="cls-7" d="M1081.32,283.81l-3.51-.16Z" transform="translate(-538 -77)"/><path class="cls-6" d="M1244.11,393.35l-1.74-.17Z" transform="translate(-538 -77)"/><path class="cls-12" d="M882.48,787.15H871.37l-.94-.06c-.19-.2-.39-.39-.59-.59-.07-17.13-.32-34.26-.12-51.38.09-6.77-2.71-10.85-8.64-13.77-20.22-10-40.72-19.45-60.34-30.47-39.3-22.07-61-56.21-62.15-101.22-1.33-51.09-.43-102.24-.35-153.37a21.72,21.72,0,0,1,43.4-1.26c-.38,1.43-1.09,2.86-1.1,4.29q-.09,42.94,0,85.91c0,1.43.72,2.85,1.1,4.27a22.87,22.87,0,0,1-2.59,2.53c-22.43,15.89-25.71,46.83-6.55,66.55,18.39,18.95,37.24,37.44,56,56.06,4.91,4.89,11.59,5,16,.56s4.34-11-.62-16c-18.21-18.33-36.54-36.54-54.75-54.86-7.68-7.74-9.26-17.85-4.43-26.64a21.71,21.71,0,0,1,34-5.53,207.37,207.37,0,0,1,16.69,16.59c15.94,18.1,36.37,28.67,59,35.5,11.17,3.37,22.56,6.15,34,8.44,20.26,4.08,35.17,20.9,35.4,41.47.24,21.26,0,42.52-.07,63.79a24.26,24.26,0,0,0-3.39,2.89c-3.78,4.6-7.08,9.66-11.23,13.89a297.47,297.47,0,0,1-57.51,45.16C888.29,781.91,885.5,784.71,882.48,787.15Z" transform="translate(-538 -77)"/><path class="cls-13" d="M882.48,787.15c3-2.44,5.81-5.24,9.09-7.25a297.47,297.47,0,0,0,57.51-45.16c4.15-4.23,7.45-9.29,11.23-13.89A24.26,24.26,0,0,1,963.7,718v69.09a19.79,19.79,0,0,1-2.46.29q-38.32,0-76.64,0C883.89,787.35,883.18,787.22,882.48,787.15Z" transform="translate(-538 -77)"/><path class="cls-14" d="M781.64,529.51c-.38-1.42-1.09-2.84-1.1-4.27q-.09-43,0-85.91c0-1.43.72-2.86,1.1-4.29a19.55,19.55,0,0,1,.31,2.51q0,44.73,0,89.45A19.77,19.77,0,0,1,781.64,529.51Z" transform="translate(-538 -77)"/><path class="cls-13" d="M869.84,786.51c.2.2.4.39.59.59C870.24,786.9,870,786.71,869.84,786.51Z" transform="translate(-538 -77)"/><path class="cls-13" d="M871.37,787.16h.77l-.38.16Z" transform="translate(-538 -77)"/><path class="cls-12" d="M1211.79,435.19A21.6,21.6,0,0,1,1233,414.75a22,22,0,0,1,22.21,20.09c.08,1,.07,2,.07,3q0,73.25,0,146.47c0,1.14-.14,2.28-.21,3.41-3,2.34-6.11,4.63-9.08,7-12,9.74-24.08,19.43-36,29.33-10.48,8.72-20.8,17.63-31.08,26.59-8.36,7.28-16.53,14.78-24.83,22.12-11.5,10.16-23.06,20.24-34.56,30.4-6,5.27-11.81,10.67-17.79,15.93q-16.62,14.65-33.35,29.19c-8.24,7.18-16.79,14-24.68,21.59-5.19,5-11.94,8.86-13.86,16.63-.08-1.28-.23-2.55-.23-3.82q0-62.55,0-125.09c0-25.38,15.42-42.33,40.55-45.69,26.18-3.5,50.51-12.64,71.58-28.54,11.2-8.44,20.44-19.45,30.79-29.06a31.91,31.91,0,0,1,10.17-6.78,21.23,21.23,0,0,1,25.35,9,21.5,21.5,0,0,1-3.09,27.14c-15.46,15.64-31.06,31.14-46.6,46.69-3,3-6.13,6-9.07,9.11-4.67,4.95-4.77,11.22-.37,15.7s11,4.46,15.73-.21c19.14-19,38.5-37.84,57.13-57.36,17.73-18.58,14.88-48.23-5.36-64.07-1.11-.87-2.2-1.78-3.3-2.67q0-46.06,0-92.14C1213.15,437.55,1212.27,436.37,1211.79,435.19Z" transform="translate(-538 -77)"/><path class="cls-15" d="M1029.9,786.53c1.92-7.77,8.67-11.66,13.86-16.63,7.89-7.55,16.44-14.41,24.68-21.59q16.71-14.56,33.35-29.19c6-5.26,11.82-10.66,17.79-15.93,11.5-10.16,23.06-20.24,34.56-30.4,8.3-7.34,16.47-14.84,24.83-22.12,10.28-9,20.6-17.87,31.08-26.59,11.89-9.9,24-19.59,36-29.33,3-2.41,6-4.7,9.08-7,.18,18.94-5.42,36.32-13.1,53.45-6.65,14.8-18,25-29.84,35.16-16.08,13.8-34.72,23.27-53.68,32.27-9,4.28-17.82,9-26.81,13.27-5.54,2.67-7.89,6.78-7.81,12.95.2,16,.07,32,.07,48v4.38c-1.52.08-2.62.21-3.72.21q-43.45,0-86.91,0A15.36,15.36,0,0,1,1029.9,786.53Z" transform="translate(-538 -77)"/><path class="cls-16" d="M1211.79,435.19c.48,1.18,1.36,2.36,1.36,3.54q.09,46.06,0,92.14c-.54-.86-1.55-1.71-1.55-2.57Q1211.62,481.74,1211.79,435.19Z" transform="translate(-538 -77)"/><path class="cls-17" d="M963,524.44c-28.87-24.66-58.42-48.63-81.86-78.9-15.6-20.14-24.79-42.62-23.13-68.61,1.2-18.79,7.35-35.79,20-49.92,28.53-31.85,74.78-28.67,100.24,6.74,2.66,3.71,5.54,7.42,7.33,11.55,4.51,10.44,16.83,11.12,22.6-.21,3.76-7.39,9.1-14.21,14.69-20.42,27.67-30.73,72.18-21.91,93.1,2.93,2.11,2.5,3.91,5.25,5.85,7.89-5.43,20.51-13,40.16-25.44,57.48-11.92,16.62-24.54,32.74-37,49-6.29,8.24-12.4,16.69-19.34,24.35-13,14.3-28.19,26.05-44.17,36.78C985.05,510.38,974,517.34,963,524.44Z" transform="translate(-538 -77)"/><path class="cls-18" d="M963,524.44c11-7.1,22.06-14.06,32.92-21.34,16-10.73,31.21-22.48,44.17-36.78,6.94-7.66,13.05-16.11,19.34-24.35,12.42-16.26,25-32.38,37-49,12.42-17.32,20-37,25.44-57.48,7.66,10.62,11.79,22.65,13.35,35.49,3.59,29.55-6.72,54.78-24.72,77.52-17.37,21.92-38.21,40.31-59.22,58.54-16.9,14.66-34,29.13-50.79,43.88-2.83,2.49-4.46,2.64-7.32,0C983.23,541.94,973.06,533.25,963,524.44Z" transform="translate(-538 -77)"/></svg>