<svg id="圖層_8" data-name="圖層 8" xmlns="http://www.w3.org/2000/svg" viewBox="0 0 994.11 994.01"><defs><style>.cls-1{fill:#986252;}.cls-2{fill:#f8b191;}.cls-3{fill:#fea939;}.cls-4{fill:#f9f07f;}.cls-5{fill:#fec843;}.cls-6{fill:#fe8331;}.cls-7{fill:#ebd364;}.cls-8{fill:#fea03b;}.cls-9{fill:#fd8938;}.cls-10{fill:#eed36a;}.cls-11{fill:#fea93a;}.cls-12{fill:#feaa3a;}</style></defs><path class="cls-1" d="M507,513.22c.57-4.47,1.3-8.93,1.67-13.42A496.84,496.84,0,0,1,878.26,59,489,489,0,0,1,1043.7,44.57c99.23,8.13,188.38,42.56,266.54,104.09,90.27,71.09,149.24,162.84,176.88,274.49a462.5,462.5,0,0,1,13.59,131.28C1494.23,706.68,1432,831.55,1314.11,928c-65.07,53.24-139.89,86.38-222.64,101.09-19.11,3.4-38.61,4.64-57.92,6.91a33.53,33.53,0,0,0-3.79.88H977.3A17.66,17.66,0,0,0,974,1036a477.14,477.14,0,0,1-81.28-11.67C781.45,998.11,689.45,940.75,617.5,852.1c-64.23-79.14-100.26-170-108.8-271.64-.39-4.63-1.13-9.24-1.7-13.86Zm957.27,27c.55-254.48-204.43-455.11-448.39-460.6-265.33-6-467.37,206-472.27,449.23-5.32,264.63,206,466.31,449.16,471.51C1256.9,1006,1465.43,792.41,1464.27,540.19Z" transform="translate(-507 -42.88)"/><path class="cls-2" d="M1464.27,540.19c1.16,252.22-207.37,465.79-471.5,460.14-243.14-5.2-454.48-206.88-449.16-471.51,4.9-243.22,206.94-455.19,472.27-449.23C1259.84,85.08,1464.82,285.71,1464.27,540.19ZM808,827l0,0,2.8,1.83.72.06,1,.94h0a6.16,6.16,0,0,0,1.14,1.84c10.39,7.9,22.19,9.75,34.15,5.57,9.14-3.19,17.62-8.33,26.28-12.83C892.61,814.8,911,805,929.53,795.35c14.59-7.62,29.27-15.06,43.84-22.71,10.26-5.38,20.42-11,30.62-16.46l22.29,11.74q37.74,19.92,75.48,39.82c15.29,8,30.82,15.64,45.86,24.12,9,5.06,18.07,8.24,28.34,7.09,8.17-.92,15.86-3.18,21.38-9.94a26.58,26.58,0,0,0,4-2.89c9.57-10.1,12.37-22.25,10.18-35.66-2.43-14.89-5.24-29.71-7.75-44.59-3.31-19.52-6.45-39.08-9.73-58.61q-5.21-30.87-10.54-61.72c4.72-4.35,9.53-8.61,14.15-13.06q16.68-16.08,33.21-32.31c25.35-24.93,50.84-49.71,75.87-74.95,10.71-10.8,12.39-31.12,4.68-42.65-1.53-2.46-3.05-4.92-4.59-7.38v0l-1.9-2.73h0c-.3-.31-.61-.62-.91-.94-5.07-6.31-11.06-11.62-18.89-14a151.29,151.29,0,0,0-18.72-3.9q-19.17-3.18-38.41-6c-16.43-2.42-32.88-4.7-49.33-7-11.77-1.68-23.54-3.31-35.3-5-10.25-1.5-20.49-3.08-30.74-4.63-.71-1.68-1.34-3.41-2.15-5-10.26-20.64-20.62-41.23-30.81-61.9-13.19-26.73-26.21-53.54-39.44-80.25-1.07-2.16-3.24-3.78-4.9-5.65l-.92-1.72-1-.94c-8.74-10.88-19.35-18.11-34-17.48-15.12-.3-26.83,6.15-34.3,19-6.26,10.8-11.33,22.29-16.88,33.5Q921.14,345.25,894.11,400c-1.73,3.51-2.93,7.29-4.37,10.94-4.22.64-8.43,1.32-12.65,1.91-24.43,3.45-48.86,6.84-73.28,10.32-20.95,3-41.92,5.89-62.82,9.23-10,1.6-20.31,3.05-29.77,6.51-8.59,3.14-15.68,9.41-18.48,19-.28.58-.56,1.16-.83,1.74l-1.65,2c-4.1,14.89-2.69,28.65,8.25,40.48L723.34,527l6.41,6.36,7.52,7.25,37.47,36.26,3.72,3.63L819.87,621c-.28,2.72-.42,5.46-.87,8.15q-5.31,31.51-10.73,63c-2.45,14.08-5.16,28.12-7.59,42.21-2.74,15.89-5,31.88-8,47.7-2.93,15.11-.28,28.49,10.17,40,1,1.13,2.75,1.62,4.15,2.41a3.48,3.48,0,0,0,0,.72Z" transform="translate(-507 -42.88)"/><path class="cls-3" d="M1306.82,455.19l4.58,7.38c-.25,1.88-1,3.87-.67,5.63,2.58,13.4-1.87,24.8-10.6,34.42-7.38,8.13-15.79,15.31-23.66,23q-25.9,25.32-51.71,50.76c-5.78,5.69-11.5,11.44-17.27,17.15q-14.34,14.18-28.7,28.32c-.88-.56-1.73-1.2-2.65-1.68-15.55-8-31.15-15.92-46.65-24-14.45-7.55-28.78-15.35-43.22-22.93-12.4-6.51-24.93-12.78-37.31-19.33-13-6.89-25.89-14-38.85-21-2.66-1.44-5.42-2.71-8.14-4,8.1,13.92,16.64,27,25.17,40.17q10.23,15.72,20.45,31.43c6.8,10.48,13.53,21,20.34,31.46,7,10.73,14.14,21.37,21.1,32.12,9.35,14.46,18.54,29,27.91,43.46,8,12.38,16.22,24.62,24.26,37,9.06,13.93,18,27.95,27,41.87,7.4,11.36,15,22.61,22.33,34,.84,1.31.81,3.18,1.18,4.79-10.32,8.7-22.16,11.91-34.89,7.4-9.26-3.29-17.95-8.26-26.76-12.74-13.17-6.7-26.23-13.6-39.3-20.48-10.8-5.68-21.54-11.47-32.32-17.17s-21.49-11.43-32.31-17c-7.32-3.75-14.8-7.22-22.2-10.81l-4.53-2.76q0-108.54-.07-217.07a34.64,34.64,0,0,0-.92-5.65l-.91,0c0-.9,0-1.8,0-2.7,0-.32,0-.64,0-1h1.76l1,.91a38.46,38.46,0,0,0,6.37-.48c9.1-2.16,18.14-4.6,27.24-6.76,10.75-2.56,21.53-5,32.32-7.39q17.51-3.87,35.07-7.52c9.07-1.91,18.22-3.5,27.26-5.57,8.11-1.85,16.07-4.32,24.17-6.2,8.54-2,17.18-3.56,25.76-5.42s17.39-4,26.11-5.87c8.87-1.93,17.81-3.56,26.66-5.59,12.51-2.87,25-6,37.44-9,11.67-2.76,23.38-5.34,35-8.19C1304.93,457.81,1305.8,456.2,1306.82,455.19Z" transform="translate(-507 -42.88)"/><path class="cls-4" d="M998.45,528.86a34.64,34.64,0,0,1,.92,5.65q.09,108.54.07,217.07C989.27,756.81,979.07,762,969,767.3q-39.09,20.6-78.11,41.32c-11.18,5.91-22.4,11.74-33.55,17.69-8.25,4.41-16.55,9.13-26.27,8-6.26-.75-12.34-2.9-18.5-4.43h0l-1-.94-.72-.06L808,827l0,0-1-1.81a3.48,3.48,0,0,1,0-.72c.7-1.19,1.34-2.41,2.09-3.56,7.87-12,15.82-24,23.62-36,10.7-16.54,21.2-33.2,31.94-49.71,10.41-16,21.1-31.8,31.52-47.79,13.17-20.21,26.16-40.53,39.26-60.78q20-30.95,40.07-61.86C983.17,552.8,990.79,540.81,998.45,528.86Z" transform="translate(-507 -42.88)"/><path class="cls-3" d="M997.55,526.13c0,.9,0,1.8,0,2.7-6.5,3.32-13,6.56-19.51,10C968,544.14,958,549.67,948,555c-10.61,5.59-21.33,11-31.94,16.54q-23.52,12.35-47,24.85c-11,5.83-21.89,11.81-33,17.47-5.26,2.68-10.81,4.78-16.23,7.15l-41.41-40.5c-.15-4.64-.46-4.94-3.72-3.62l-37.47-36.26-7.52-7.25c-.38-3.88-1.86-6.66-6.41-6.36l-24.83-24.84c4.25-.38,2.91-2.49,1.34-4.53a32.14,32.14,0,0,1-6.26-11.75c-2-7.65-1.51-14.93.24-22.36l4.6-.92,12.89,2.76,2.76.92,8.28,1.84H727c1.48,4.78,5.15,3,8.29,2.76l17.48,3.68,1.84.92,5.53.92,13.8,3.68c2,.07,4,.2,3.68-2.73l1.85.88c.87.93,1.6,2.45,2.63,2.7,7.88,1.93,15.81,3.71,23.77,5.27,1.18.23,2.63-1,4-1.5l1.84,0c.68,1.18,1.13,3.13,2.06,3.39,3.53,1,7.21,1.44,10.83,2.1l3.68,1.84H831l1.84.92h1.84l2.76.92c2.78.57,6.18-1.72,8.29,1.84l7.36,1.84,9.2.92c.09,2.9,1.25,3.64,3.68,1.84,2,.2,3.9.47,5.86.59,2.65.16,5.31.21,8,.3l1.82,0c1.75,4.53,5.73,3.47,9.2,3.69l2.77.92h1.84c.08,2.91,1.24,3.64,3.68,1.84h2.76l1.84.93h2.76l2.76.92H911c.23,3.86,2.32,3.1,4.6,1.84h1.84l2.77.92c3.77.8,7.52,1.71,11.32,2.33.73.12,1.65-.93,2.49-1.44l1.83,0c.84,6,5.88,3.58,9.2,4.6h4.61c.08,2.9,1.24,3.64,3.68,1.84,5.89,1.5,11.72,3.3,17.69,4.34,2.23.39,4.76-1,7.15-1.56l1.85,0c1,4.26,10.17,6.67,13.8,3.65Z" transform="translate(-507 -42.88)"/><path class="cls-5" d="M819.87,621c5.42-2.37,11-4.47,16.23-7.15,11.07-5.66,22-11.64,33-17.47q23.48-12.45,47-24.85C926.64,566,937.36,560.57,948,555c10.06-5.31,20-10.84,30.06-16.17,6.46-3.42,13-6.66,19.51-10l.91,0c-7.66,11.95-15.28,23.94-23,35.87q-20,30.94-40.07,61.86c-13.1,20.25-26.09,40.57-39.26,60.78-10.42,16-21.11,31.8-31.52,47.79-10.74,16.51-21.24,33.17-31.94,49.71-7.8,12.06-15.75,24-23.62,36-.75,1.15-1.39,2.37-2.09,3.56-1.4-.79-3.13-1.28-4.15-2.41-10.45-11.51-13.1-24.89-10.17-40,3.06-15.82,5.3-31.81,8-47.7,2.43-14.09,5.14-28.13,7.59-42.21q5.47-31.49,10.73-63C819.45,626.45,819.59,623.71,819.87,621Z" transform="translate(-507 -42.88)"/><path class="cls-4" d="M1000.31,526.09l-1-.91c0-2.14.09-4.28.09-6.43l0-280.72c14.64-.63,25.25,6.6,34,17.48l1,.94c.31.57.62,1.15.92,1.73a16.55,16.55,0,0,0,.78,2.59c7.57,15.27,15.21,30.49,22.74,45.77q22.56,45.81,45,91.68c2.07,4.23,4,8.54,6,12.82q-28.07,29.67-56.16,59.33c-11.19,11.75-22.63,23.28-33.88,35C1013.2,512.19,1006.79,519.17,1000.31,526.09Z" transform="translate(-507 -42.88)"/><path class="cls-3" d="M999.44,238l0,280.72c0,2.15-.06,4.29-.09,6.43h-1.76c-6.67-7.12-13.28-14.29-20-21.34q-23-24-46.06-47.94c-8.38-8.71-16.87-17.3-25.11-26.12-5.72-6.12-11.1-12.56-16.63-18.86,1.44-3.65,2.64-7.43,4.37-10.94q27-54.75,54.15-109.42c5.55-11.21,10.62-22.7,16.88-33.5C972.61,244.18,984.32,237.73,999.44,238Z" transform="translate(-507 -42.88)"/><path class="cls-5" d="M1000.31,526.09c6.48-6.92,12.89-13.9,19.46-20.74,11.25-11.7,22.69-23.23,33.88-35q28.18-29.56,56.16-59.33l2.81,0c10.25,1.55,20.49,3.13,30.74,4.63,11.76,1.72,23.53,3.35,35.3,5,16.45,2.33,32.9,4.61,49.33,7q19.23,2.83,38.41,6a151.29,151.29,0,0,1,18.72,3.9c7.83,2.35,13.82,7.66,18.89,14,.3.32.61.63.91.94h0l1.9,2.73v0c-1,1-1.89,2.62-3.09,2.92-11.64,2.85-23.35,5.43-35,8.19-12.49,2.95-24.93,6.12-37.44,9-8.85,2-17.79,3.66-26.66,5.59-8.72,1.89-17.39,4-26.11,5.87s-17.22,3.43-25.76,5.42c-8.1,1.88-16.06,4.35-24.17,6.2-9,2.07-18.19,3.66-27.26,5.57q-17.57,3.68-35.07,7.52c-10.79,2.39-21.57,4.83-32.32,7.39-9.1,2.16-18.14,4.6-27.24,6.76A38.46,38.46,0,0,1,1000.31,526.09Z" transform="translate(-507 -42.88)"/><path class="cls-5" d="M889.74,410.92c5.53,6.3,10.91,12.74,16.63,18.86,8.24,8.82,16.73,17.41,25.11,26.12q23,24,46.06,47.94c6.74,7.05,13.35,14.22,20,21.34,0,.31,0,.63,0,1l-3.69,0-13.8-3.65-1.85,0-24.84-5.54-3.67,0-1.85-1.76-2.77,0-9.2-1.85-1.83,0q-9.67-2.28-19.34-4.59l-2.76-.91-12.88-2.76-2.75,0-2.77-1.79H891.7l-10.12-1.87-1.82,0c-.29-.5-.51-1.39-.88-1.45-4.61-.81-9.24-1.49-13.87-2.21h-.9l-14.74-3.67-1.83,0a11.6,11.6,0,0,0-2.94-1.75c-5.45-1.33-10.93-2.49-16.4-3.7l-1.84,0-14.73-3.66-1.84,0-30.36-6.47-1.85-.88-9.2-1.87-2.75,0-1.85-.9-2.77-.89-30.37-6.47-2.76-.9-14.72-2.78-.91,0-14.74-3.66-4.77-1.93c2.8-9.6,9.89-15.87,18.48-19,9.46-3.46,19.73-4.91,29.77-6.51,20.9-3.34,41.87-6.24,62.82-9.23,24.42-3.48,48.85-6.87,73.28-10.32C881.31,412.24,885.52,411.56,889.74,410.92Z" transform="translate(-507 -42.88)"/><path class="cls-6" d="M1178.79,621.86q14.34-14.16,28.7-28.32c5.77-5.71,11.49-11.46,17.27-17.15q25.83-25.41,51.71-50.76c7.87-7.7,16.28-14.88,23.66-23,8.73-9.62,13.18-21,10.6-34.42-.34-1.76.42-3.75.67-5.63,7.71,11.53,6,31.85-4.68,42.65-25,25.24-50.52,50-75.87,74.95q-16.51,16.25-33.21,32.31c-4.62,4.45-9.43,8.71-14.15,13.06l-4.56-1.93C1178.88,623,1178.83,622.44,1178.79,621.86Z" transform="translate(-507 -42.88)"/><path class="cls-7" d="M812.52,829.84c6.16,1.53,12.24,3.68,18.5,4.43,9.72,1.17,18-3.55,26.27-8,11.15-5.95,22.37-11.78,33.55-17.69Q929.9,788,969,767.3c10.12-5.33,20.32-10.49,30.49-15.72l4.53,2.76c0,.61,0,1.23,0,1.84-10.2,5.5-20.36,11.08-30.62,16.46-14.57,7.65-29.25,15.09-43.84,22.71C911,805,892.61,814.8,874.09,824.42c-8.66,4.5-17.14,9.64-26.28,12.83-12,4.18-23.76,2.33-34.15-5.57A6.16,6.16,0,0,1,812.52,829.84Z" transform="translate(-507 -42.88)"/><path class="cls-8" d="M1178.93,623.61l4.56,1.93q5.28,30.87,10.54,61.72c3.28,19.53,6.42,39.09,9.73,58.61,2.51,14.88,5.32,29.7,7.75,44.59,2.19,13.41-.61,25.56-10.18,35.66a25.84,25.84,0,0,1-4,2.88l-2.94-3.89a18.13,18.13,0,0,1,1.56-2.72c5.59-6.82,10.61-14.07,10.9-23.16a112.09,112.09,0,0,0-1.4-19.94c-2.33-15.65-5-31.25-7.7-46.85-3.16-18.45-6.49-36.87-9.69-55.31C1185,659.3,1182,641.45,1178.93,623.61Z" transform="translate(-507 -42.88)"/><path class="cls-9" d="M1194.4,825.11l2.94,3.89c-5.52,6.77-13.21,9-21.38,10-10.27,1.15-19.37-2-28.34-7.09-15-8.48-30.57-16.08-45.86-24.12q-37.76-19.86-75.48-39.82L1004,756.18c0-.61,0-1.23,0-1.84,7.4,3.59,14.88,7.06,22.2,10.81,10.82,5.55,21.55,11.29,32.31,17s21.52,11.49,32.32,17.17c13.07,6.88,26.13,13.78,39.3,20.48,8.81,4.48,17.5,9.45,26.76,12.74,12.73,4.51,24.57,1.3,34.89-7.4Z" transform="translate(-507 -42.88)"/><path class="cls-10" d="M1112.62,411l-2.81,0c-2-4.28-3.88-8.59-6-12.82q-22.48-45.86-45-91.68c-7.53-15.28-15.17-30.5-22.74-45.77a16.55,16.55,0,0,1-.78-2.59c1.66,1.86,3.83,3.48,4.9,5.64,13.23,26.71,26.25,53.52,39.44,80.25,10.19,20.67,20.55,41.26,30.81,61.9C1111.28,407.6,1111.91,409.33,1112.62,411Z" transform="translate(-507 -42.88)"/><path class="cls-3" d="M693.83,463.52c-1.75,7.43-2.26,14.71-.24,22.36a32.14,32.14,0,0,0,6.26,11.75c1.57,2,2.91,4.15-1.34,4.53-10.94-11.83-12.35-25.59-8.25-40.48H692Z" transform="translate(-507 -42.88)"/><path class="cls-3" d="M693.83,463.52,692,461.68l-.08-2c.27-.58.55-1.16.83-1.74l4.77,1.92c.31.92.62,1.85.92,2.77Z" transform="translate(-507 -42.88)"/><path class="cls-11" d="M723.34,527c4.55-.3,6,2.48,6.41,6.36Z" transform="translate(-507 -42.88)"/><path class="cls-11" d="M774.74,576.87c3.26-1.32,3.57-1,3.72,3.62Z" transform="translate(-507 -42.88)"/><path class="cls-3" d="M1306.82,455.22l-1.9-2.73Z" transform="translate(-507 -42.88)"/><path class="cls-7" d="M808,827l2.8,1.83Z" transform="translate(-507 -42.88)"/><path class="cls-12" d="M691.91,459.65l.08,2h-1.73Z" transform="translate(-507 -42.88)"/><path class="cls-7" d="M807,825.18l1,1.81Z" transform="translate(-507 -42.88)"/><path class="cls-3" d="M1304.92,452.49c-.3-.31-.61-.62-.91-.94C1304.31,451.87,1304.62,452.18,1304.92,452.49Z" transform="translate(-507 -42.88)"/><path class="cls-10" d="M1034.4,256.45l-1-.94Z" transform="translate(-507 -42.88)"/><path class="cls-7" d="M811.54,828.91l1,.94Z" transform="translate(-507 -42.88)"/><path class="cls-5" d="M1194.4,825.11h-2.65c-.37-1.61-.34-3.48-1.18-4.79-7.36-11.38-14.93-22.63-22.33-34-9.06-13.92-18-27.94-27-41.87-8-12.36-16.25-24.6-24.26-37-9.37-14.44-18.56-29-27.91-43.46-7-10.75-14.1-21.39-21.1-32.12-6.81-10.46-13.54-21-20.34-31.46s-13.63-21-20.45-31.43c-8.53-13.12-17.07-26.25-25.17-40.17,2.72,1.34,5.48,2.61,8.14,4,13,7,25.84,14.11,38.85,21,12.38,6.55,24.91,12.82,37.31,19.33,14.44,7.58,28.77,15.38,43.22,22.93,15.5,8.1,31.1,16,46.65,24,.92.48,1.77,1.12,2.65,1.68,0,.58.09,1.17.14,1.75,3,17.84,6,35.69,9.14,53.52,3.2,18.44,6.53,36.86,9.69,55.31,2.68,15.6,5.37,31.2,7.7,46.85a112.09,112.09,0,0,1,1.4,19.94c-.29,9.09-5.31,16.34-10.9,23.16A18.13,18.13,0,0,0,1194.4,825.11Z" transform="translate(-507 -42.88)"/><path class="cls-3" d="M730.64,467.19,761,473.66c-.3.92-.61,1.83-.91,2.74l-5.53-.92-1.84-.92-17.48-3.68Z" transform="translate(-507 -42.88)"/><path class="cls-3" d="M779.43,478.23l30.36,6.47c-1.33.53-2.78,1.73-4,1.5-8-1.56-15.89-3.34-23.77-5.27C781,480.68,780.3,479.16,779.43,478.23Z" transform="translate(-507 -42.88)"/><path class="cls-3" d="M953.37,516.9l24.84,5.54c-2.39.57-4.92,1.95-7.15,1.56-6-1-11.8-2.84-17.69-4.34Z" transform="translate(-507 -42.88)"/><path class="cls-3" d="M914.71,508.6q9.67,2.29,19.34,4.59c-.84.51-1.76,1.56-2.49,1.44-3.8-.62-7.55-1.53-11.32-2.33l-2.77-.92h-1.84C915.33,510.45,915,509.53,914.71,508.6Z" transform="translate(-507 -42.88)"/><path class="cls-3" d="M828.2,488.41c5.47,1.21,10.95,2.37,16.4,3.7a11.6,11.6,0,0,1,2.94,1.75l-1.85,1.87c-2.11-3.56-5.51-1.27-8.29-1.84l-2.76-.92H832.8l-1.84-.92H828.2Z" transform="translate(-507 -42.88)"/><path class="cls-3" d="M811.63,484.72l14.73,3.66-1.84,1.83c-3.62-.66-7.3-1.1-10.83-2.1C812.76,487.85,812.31,485.9,811.63,484.72Z" transform="translate(-507 -42.88)"/><path class="cls-3" d="M713.16,463.51l14.72,2.78-.92,1.83h-4.6l-8.28-1.84C713.77,465.36,713.46,464.43,713.16,463.51Z" transform="translate(-507 -42.88)"/><path class="cls-3" d="M849.37,493.88l14.74,3.67-1.86.94-9.2-.92Z" transform="translate(-507 -42.88)"/><path class="cls-3" d="M698.43,462.6c-.3-.92-.61-1.85-.92-2.77l14.74,3.66-.93,1.87Z" transform="translate(-507 -42.88)"/><path class="cls-3" d="M980.06,522.46l13.8,3.65C990.23,529.13,981.09,526.72,980.06,522.46Z" transform="translate(-507 -42.88)"/><path class="cls-3" d="M760.1,476.4c.3-.91.61-1.82.91-2.74l2.77.89,1.85.9,2.75,0a16.22,16.22,0,0,0,2.19,2.71,20.47,20.47,0,0,0,3.33,1.89Z" transform="translate(-507 -42.88)"/><path class="cls-3" d="M865,497.56c4.63.72,9.26,1.4,13.87,2.21.37.06.59,1,.88,1.45-2.66-.09-5.32-.14-8-.3-2-.12-3.9-.39-5.86-.59C865.63,499.41,865.32,498.49,865,497.56Z" transform="translate(-507 -42.88)"/><path class="cls-3" d="M899.07,504.93,912,507.69c-.3.62-.61,1.23-.92,1.85h-1.84l-2.76-.92h-2.76l-1.84-.93h-2.76Z" transform="translate(-507 -42.88)"/><path class="cls-3" d="M935.88,513.22l9.2,1.85v2.75C941.76,516.8,936.72,519.2,935.88,513.22Z" transform="translate(-507 -42.88)"/><path class="cls-3" d="M881.58,501.24l10.12,1.87c-.3.61-.61,1.22-.92,1.82C887.31,504.71,883.33,505.77,881.58,501.24Z" transform="translate(-507 -42.88)"/><path class="cls-3" d="M773.9,480.08a20.47,20.47,0,0,1-3.33-1.89,16.22,16.22,0,0,1-2.19-2.71l9.2,1.87C777.86,480.28,775.85,480.15,773.9,480.08Z" transform="translate(-507 -42.88)"/><path class="cls-3" d="M727,468.12l.92-1.83,2.76.9,4.61,3.69C732.11,471.09,728.44,472.9,727,468.12Z" transform="translate(-507 -42.88)"/><path class="cls-3" d="M849.37,493.88l3.68,3.69-7.36-1.84,1.85-1.87Z" transform="translate(-507 -42.88)"/><path class="cls-3" d="M911,509.54c.31-.62.62-1.23.92-1.85l2.76.91c.31.93.62,1.85.92,2.78C913.35,512.64,911.26,513.4,911,509.54Z" transform="translate(-507 -42.88)"/><path class="cls-3" d="M953.37,516.9v2.76c-2.44,1.8-3.6,1.06-3.68-1.84v-1Z" transform="translate(-507 -42.88)"/><path class="cls-3" d="M899.07,504.93v2.76c-2.44,1.8-3.6,1.07-3.68-1.84l.93-.94Z" transform="translate(-507 -42.88)"/><path class="cls-3" d="M865,497.56c.31.93.62,1.85.92,2.77-2.43,1.8-3.59,1.06-3.68-1.84l1.86-.94Z" transform="translate(-507 -42.88)"/><path class="cls-3" d="M824.52,490.21l1.84-1.83,1.84,0v3.64Z" transform="translate(-507 -42.88)"/><path class="cls-3" d="M945.08,517.82v-2.75l2.77,0v2.72Z" transform="translate(-507 -42.88)"/><path class="cls-3" d="M890.78,504.93c.31-.6.62-1.21.92-1.82h1.85v2.73Z" transform="translate(-507 -42.88)"/><path class="cls-3" d="M711.32,465.36l.93-1.87.91,0c.3.92.61,1.85.92,2.77Z" transform="translate(-507 -42.88)"/><path class="cls-3" d="M893.55,505.85v-2.73l2.77,1.79-.93.94Z" transform="translate(-507 -42.88)"/><path class="cls-3" d="M917.47,511.38l2.77.92Z" transform="translate(-507 -42.88)"/><path class="cls-3" d="M722.36,468.12h0Z" transform="translate(-507 -42.88)"/><path class="cls-3" d="M834.64,493l2.76.92Z" transform="translate(-507 -42.88)"/><path class="cls-3" d="M906.43,508.62l2.76.92Z" transform="translate(-507 -42.88)"/><path class="cls-3" d="M947.85,517.82V515.1l1.85,1.76c0,.32,0,.64,0,1Z" transform="translate(-507 -42.88)"/><path class="cls-3" d="M901.83,507.69l1.84.93Z" transform="translate(-507 -42.88)"/><path class="cls-3" d="M831,492.05l1.84.92Z" transform="translate(-507 -42.88)"/><path class="cls-3" d="M752.73,474.56l1.84.92Z" transform="translate(-507 -42.88)"/><path class="cls-3" d="M765.63,475.45l-1.85-.9Z" transform="translate(-507 -42.88)"/></svg>