<svg id="圖層_9" data-name="圖層 9" xmlns="http://www.w3.org/2000/svg" viewBox="0 0 955.45 955.45"><defs><style>.cls-1{fill:#986252;}.cls-2{fill:#f8b191;}.cls-3{fill:#3d3b41;}.cls-4{fill:#1b1a1c;}.cls-5{fill:#fcda41;}.cls-6{fill:#fabe29;}.cls-7{fill:#3d3a41;}</style></defs><path class="cls-1" d="M1438,550.32c-.54,4.29-1.24,8.58-1.6,12.89-8.06,97.12-42.34,184-103.28,259.91-63.46,79.08-144.26,132.71-241.72,161-47.47,13.75-96.05,20.07-145.39,18-141.66-6-259.14-62.72-351.35-170.4C540.57,768.51,506.5,695.28,491,613.6a466.43,466.43,0,0,1-4.89-145.17Q507.45,295,634.8,175.3c65.84-61.9,143.65-101.55,232.36-119,21.6-4.26,43.75-5.7,65.64-8.46a17.51,17.51,0,0,0,2.77-.82H985.1a15.64,15.64,0,0,0,2.77.82c12,1.18,24.06,2,36,3.51a463.22,463.22,0,0,1,143.94,43,477.46,477.46,0,0,1,268.56,391.8c.38,4.6,1.07,9.18,1.61,13.78Zm-35.27-25.39c.64-244.2-196.17-437.24-430.63-442.7C717.23,76.3,522.48,280,517.84,514.23c-5,253.65,197.64,447.88,431.61,453C1203.21,972.73,1404,767.35,1402.73,524.93Z" transform="translate(-482.55 -47)"/><path class="cls-2" d="M1402.73,524.93c1.23,242.42-199.52,447.8-453.28,442.28-234-5.1-436.65-199.33-431.61-453C522.48,280,717.23,76.3,972.1,82.23,1206.56,87.69,1403.37,280.73,1402.73,524.93ZM671,739.58c3.67,3.72,6.91,8,11.09,11,10.35,7.43,22.46,9,34.87,9q133.08-.12,266.17-.19,122.48,0,245,0c9.16,0,18.24-.39,26.87-3.92,15.25-6.24,24.77-17.37,27.15-33.69,1.75-12-1.89-23.29-7.86-33.74q-14.7-25.69-29.52-51.3-68.9-119.34-137.81-238.68c-30.63-53.05-61.17-106.14-92.05-159-3.64-6.23-9.18-11.35-13.84-17-4.1-4.2-8.1-8.51-12.32-12.59-14.18-13.71-37.57-14.95-52.53-4.3-8.65,6.17-14.77,14.22-20,23.24q-40.54,70.38-81.2,140.7-39.85,69-79.75,138-36.64,63.45-73.22,127c-8.66,15.05-17.62,30-25.68,45.31-6.92,13.19-8.09,27.17-2.08,41.26C657.78,728.77,664.29,734.25,671,739.58Z" transform="translate(-482.55 -47)"/><path class="cls-3" d="M671,739.58c-6.71-5.33-13.22-10.81-16.71-19-6-14.09-4.84-28.07,2.08-41.26,8.06-15.36,17-30.26,25.68-45.31q36.57-63.51,73.22-127,39.86-69,79.75-138,40.63-70.33,81.2-140.7c5.2-9,11.32-17.07,20-23.24,15-10.65,38.35-9.41,52.53,4.3,4.22,4.08,8.22,8.39,12.32,12.59.65,1.92,1,4,2,5.73,9.49,16.55,19.11,33,28.66,49.55q15.18,26.26,30.3,52.58,18.13,31.44,36.3,62.87c10.79,18.66,21.63,37.29,32.37,56,5.11,8.92,9.95,18,15.09,26.89,7.11,12.3,14.49,24.46,21.59,36.77,9.38,16.29,18.54,32.71,27.92,49,7.11,12.33,14.51,24.48,21.61,36.8q14.05,24.4,27.83,49c7.08,12.64,14.37,25.18,20.73,38.17,5.62,11.46,5.27,23.59-.15,35.12-7.86,16.7-22.34,25-39.84,25.12-89.72.82-179.44.92-269.17,1.07-79.73.15-159.47,0-239.2.05C701.34,746.7,685.63,746.71,671,739.58Zm288.47-30.14c1.18.08,2.35.24,3.52.24q128,0,256,0a34.6,34.6,0,0,0,8.68-1.3c4.12-1.11,5.69-4.06,4.39-8.1a43.88,43.88,0,0,0-3.54-8.52q-29.37-51.12-58.9-102.16-92.22-159.7-184.45-319.39c-5.22-9.05-10.35-18.17-15.77-27.11-2.31-3.82-4.61-8-9.91-8.51-5.71,1.26-8,6-10.58,10.44q-50.42,87.2-100.71,174.45Q771.28,552.6,694.41,685.77a96.74,96.74,0,0,0-6.76,13.84c-1.83,4.83-.14,7.78,4.84,8.89a51.15,51.15,0,0,0,10.92,1.08q125.83.07,251.66,0C956.54,709.61,958,709.5,959.47,709.44Z" transform="translate(-482.55 -47)"/><path class="cls-4" d="M671,739.58c14.63,7.13,30.34,7.12,46.08,7.11,79.73,0,159.47.1,239.2-.05,89.73-.15,179.45-.25,269.17-1.07,17.5-.15,32-8.42,39.84-25.12,5.42-11.53,5.77-23.66.15-35.12-6.36-13-13.65-25.53-20.73-38.17q-13.76-24.57-27.83-49c-7.1-12.32-14.5-24.47-21.61-36.8-9.38-16.29-18.54-32.71-27.92-49-7.1-12.31-14.48-24.47-21.59-36.77-5.14-8.9-10-18-15.09-26.89-10.74-18.68-21.58-37.31-32.37-56q-18.16-31.42-36.3-62.87-15.15-26.28-30.3-52.58c-9.55-16.52-19.17-33-28.66-49.55-1-1.73-1.35-3.81-2-5.73,4.66,5.64,10.2,10.76,13.84,17,30.88,52.9,61.42,106,92.05,159q68.91,119.32,137.81,238.68,14.79,25.63,29.52,51.3c6,10.45,9.61,21.69,7.86,33.74-2.38,16.32-11.9,27.45-27.15,33.69-8.63,3.53-17.71,3.92-26.87,3.92q-122.49,0-245,0-133.08,0-266.17.19c-12.41,0-24.52-1.53-34.87-9C677.91,747.62,674.67,743.3,671,739.58Z" transform="translate(-482.55 -47)"/><path class="cls-5" d="M959.48,709.44c-1.47.06-2.94.17-4.41.17q-125.84,0-251.66,0a51.15,51.15,0,0,1-10.92-1.08c-5-1.11-6.67-4.06-4.84-8.89a96.74,96.74,0,0,1,6.76-13.84q76.83-133.2,153.78-266.33Q898.55,332.22,948.9,245c2.54-4.39,4.87-9.18,10.58-10.44q0,41.54,0,83.09c-3,.44-6.07.69-9,1.35-22.91,5.15-37.85,23.73-37.88,47.35q-.11,78.26,0,156.5a45.9,45.9,0,0,0,.42,7c3.82,24.37,21.19,40,46.48,41.9,0,2.17.07,4.35,0,6.52-.23,5-.55,10-.83,15.05-15.84.89-28.76,7.48-37.66,20.65-10.43,15.44-11.57,32-2.87,48.52s23.07,24.44,41.4,25.72Q959.49,698.84,959.48,709.44Z" transform="translate(-482.55 -47)"/><path class="cls-6" d="M958.62,593.35c.28-5,.6-10,.83-15.05.1-2.17,0-4.35,0-6.52l7.89-.94c20.84-2.5,39.37-22.35,39.49-43.44.31-54.09.19-108.18.18-162.27a40,40,0,0,0-.87-9.21c-5.55-23.22-22.56-37.1-46.67-38.28q0-41.55,0-83.09c5.3.5,7.6,4.69,9.91,8.51,5.42,8.94,10.55,18.06,15.77,27.11q92.24,159.69,184.45,319.39,29.49,51.06,58.9,102.16a43.88,43.88,0,0,1,3.54,8.52c1.3,4-.27,7-4.39,8.1a34.6,34.6,0,0,1-8.68,1.3q-128,.09-256,0c-1.17,0-2.34-.16-3.51-.24q0-10.61,0-21.2c3.77-.53,7.59-.83,11.31-1.62,24.67-5.28,40.9-31.78,35.28-56.26C1001.93,612.29,984.73,592.75,958.62,593.35Z" transform="translate(-482.55 -47)"/><path class="cls-7" d="M959.5,317.64c24.11,1.18,41.12,15.06,46.67,38.28a40,40,0,0,1,.87,9.21c0,54.09.13,108.18-.18,162.27-.12,21.09-18.65,40.94-39.49,43.44l-7.89.94c-25.29-1.91-42.66-17.53-46.48-41.9a45.9,45.9,0,0,1-.42-7q0-78.25,0-156.5c0-23.62,15-42.2,37.88-47.35C953.43,318.33,956.49,318.08,959.5,317.64Z" transform="translate(-482.55 -47)"/><path class="cls-3" d="M958.62,593.35c26.11-.6,43.31,18.94,47.46,37,5.62,24.48-10.61,51-35.28,56.26-3.72.79-7.54,1.09-11.31,1.62-18.33-1.28-32.74-9.32-41.4-25.72S910.53,629.44,921,614C929.86,600.83,942.78,594.24,958.62,593.35Z" transform="translate(-482.55 -47)"/></svg>