<svg id="圖層_1" data-name="圖層 1" xmlns="http://www.w3.org/2000/svg" viewBox="0 0 752.24 241.46"><defs><style>.cls-1{fill:#454545;}</style></defs><path class="cls-1" d="M1072.3,661l1.8-1.25,4.27-2.62c.84-.56,1.67-1.13,2.5-1.7l5.44-3.4a4.85,4.85,0,0,1,.61-.49l4.4-2.47a2.92,2.92,0,0,1,.66-.44l4.37-2.49,7.76-7.32,1.61-2.27c.1-.58.21-1.15.31-1.73q2.35-5.7,4.72-11.4l-1.79-1.25-10.15,9.15q-.29.31-.6.6l-4.34,2.51-1.48.77c-3.12.62-6.25,1.78-9.36,1.72-4.4-.08-8.78-1.06-13.17-1.66a2.13,2.13,0,0,1-.68-.47l-2.08-1.91-1.08-.94-2-2v0l-4.07-6-4.9,3.85-4.82,4.19-4.34,2.52a7.46,7.46,0,0,1-.61.53l-2.34,1.55a7.92,7.92,0,0,1-.69.42l-3.32,1.54-2.55,1.65c-4,1.17-8,2.52-12.09,3.47-8,1.88-16.17,2.73-23.89-1.24-2.25-1.15-4.13-3-6.17-4.57a2.69,2.69,0,0,1-.49-.67l-2.88-5.61c-3.78-2-3.81,2.11-5.57,3.39l-4.73,6.16a3.73,3.73,0,0,1-.4.7l-5,4.94a2.51,2.51,0,0,1-.65.47l-2.5,1.25-1.67,1.48L966,651.44a7.25,7.25,0,0,1-.64.49l-6.11,1-2.78.15-19.44-3a5,5,0,0,1-.72-.39l-5-3h0L929.16,645l-6.56-6.63c-3.12-2.86-5.42-1.84-7.22,1.53h0l-4.23,3.7c-8.55,9.12-17.94,17.1-29.42,22.44-10.66,5-16.38,1-23-5.52-3.3-3.26-6-7.12-9.26-10.41-3.88-3.89-8.46-3.64-12,.6-8.27,9.92-18.26,16.57-31.51,17.61-6.42.5-12.8,1.88-19.21,1.92-12.21.07-23.51-8.28-27.9-19.68a72.4,72.4,0,0,1-5.25-28.17c.2-7.82-.31-15.67.19-23.46.62-9.59,2-19.13,3-28.7l2-12.35c0-.51.07-1,.1-1.52q1-4.87,2.05-9.75l-1.51-.36c-.79,2.09-1.59,4.17-2.38,6.25-4.49,8.42-9.18,16.73-13.43,25.27q-13.35,26.88-26.3,54c-2.36,4.9-4.43,10-6.33,15.07-4.71,12.63-21.43,17.32-29.27,7.72a17.68,17.68,0,0,1-3.49-11.46q1.77-24.56,4.91-49c1.56-12.13,4-24.14,6.06-36.2a16.73,16.73,0,0,0-.25-3.07c-2,2.83-3.78,4.72-4.86,6.93-6.24,12.79-11.91,25.87-18.55,38.45-10.42,19.75-20.35,39.94-35.25,56.85-11.4,12.94-22,12.94-35.5,5.62a31.73,31.73,0,0,1-4.22-2.58c-3.79-2.92-7.73-6.68-6.47-11.46,1.16-4.46,4.42-8.65,7.65-12.12,1-1.05,5.17.2,7.48,1.26,2.94,1.36,5.22,4.37,8.21,5.3,5.68,1.78,10.73-.78,13.91-5.33a279.56,279.56,0,0,0,14.9-23.94c8.85-15.9,17.26-32.06,26-48,10.4-19.13,21.59-37.88,31.1-57.44,5.18-10.64,18.09-15.51,26.4-14.85,5.08.41,7.39,4.47,5.54,9.87-1.65,4.85-3.86,9.52-5.33,14.42-3.21,10.75-6.36,21.54-9,32.43-2.54,10.28-4.6,20.69-6.58,31.11-1.33,7-2.12,14.09-3.21,21.13-.73,4.73-1.67,9.43-2.31,14.17a48.46,48.46,0,0,0,0,6.38l1.45.56c2.8-4.84,5.8-9.57,8.38-14.52,8.85-17,17.53-34,26.33-51s18-33.81,26.39-51c6.3-12.92,23.5-18.46,35.76-10.55,3.09,2,4.35,5,2.79,8.66-8.11,19.17-13,39.23-16.64,59.65-2,11.25-5.05,22.34-6.43,33.66-1.67,13.74-2.21,27.86,7.12,39.59,9.91,12.45,24.74,13.72,37.85,3.36,9.89-7.82,15.1-17.64,14.07-30.69-1-12.44.45-24.57,8-35.21,8.75-12.36,21.83-17.26,35.74-14.13,13.48,3,20,21.37,12.84,34.34-4.67,8.43-11.72,14.59-19.46,20.22-6.84,5-13.68,10.27-12.54,20.47,1,9.32,9.75,14.45,18.14,10.41,11.42-5.51,19.75-14.58,26.93-24.6,2.06-2.89,2.61-7.64,2.23-11.36-1.32-12.74-1.65-25.36,3.76-37.23,6.53-14.36,20.36-23.28,36.73-20,8.08,1.63,12.64,7.94,15.13,15.68,4.07,12.62-1.74,22.28-9.52,31.18a102.75,102.75,0,0,1-10.86,10.19c-7,6-6.77,14.48,1.22,19.17,6.52,3.83,13.89,7.43,21.38,3.44A39.92,39.92,0,0,0,978,622.4c6.69-8.78,10.17-19.15,12.34-30.21-1.64-.44-3.45-.39-4.38-1.27-1.78-1.68-4.15-3.83-4.26-5.89s2.14-4.42,3.41-6.61c.12-.21.61-.25.93-.27,11.4-.81,14-9.88,17.7-18.3,10.67-24.07,23.34-46.92,42.4-65.59a57.81,57.81,0,0,1,24.4-14.71c7.67-2.25,14.45.45,19.79,5.19,4.6,4.09,5.21,10.27,3.69,16.57-4.52,18.64-16.16,32.51-30.23,44.42-7.92,6.71-17,12.06-25.47,18.09a58.88,58.88,0,0,0-4.9,4.63c4.64,0,7.82,0,11,0,2.16,0,4.32-.16,6.48-.18,10.36-.06,10.36,0,14.46,9.6,2-3.36,4-6.31,5.65-9.42,2.67-4.94,6.13-8.75,11.57-11,3.86-1.57,7-.45,8.7,2.31,1.3,2.05,1.78,6,.69,8-6.66,12.42-11.11,25.4-11.92,39.53-.33,5.77-1.7,12,5.09,15.24,4.81,2.3,13.34-.08,17.28-5.68a98.42,98.42,0,0,0,10.75-19.38c4.07-10,7-20.51,10.6-30.71,2-5.52,11-8.75,15.63-5.57,1.25.85,2,3.55,1.79,5.22-.92,6.36-2.13,12.71-3.63,19-2.07,8.64-4.52,17.19-6.79,25.79-1.1,4.15-2.27,8.29-3.2,12.48a72.22,72.22,0,0,0-.76,7.69c3.8-2.16,6.45-3.62,9-5.17,4.69-2.79,9.18-6,14.06-8.38,7-3.46,7.73-10.75,10.83-16.57,4.79-9,8.54-18.73,14.27-27.08,7.12-10.36,18.27-15,30.71-15.83,6.4-.43,13-1,18.83,2.81,7.18,4.77,10.16,12,11,20.22.4,3.75.07,7.59.07,11.91,7.51.38,13.28-2.77,17.47-8.29,5.86-7.71,11.39-15.65,20.47-19.93,12.19-5.74,24.28-6.24,35.83,1.68,7,4.79,9.4,17.83,5.25,26.44-5.53,11.47-15.78,16.51-27.16,19.86-6.77,2-13.67,3.5-20.45,5.21,1.22,7.52,6.41,11.64,13.82,12.47,17.22,1.92,31.9-3.85,45-14.38,3-2.39,5.63-3.39,8.7-.6,2.18,2,1.9,7.21-.7,10a64.65,64.65,0,0,1-27.91,17.34,99.52,99.52,0,0,1-16.39,3.85c-13.26,1.82-31.75-3.24-39.6-16.64a36.36,36.36,0,0,1-3.94-12.11c-.65-3.83-.14-7.87-.14-12.67-8.65,2.52-16.24,3.1-20.61,12.08a45.05,45.05,0,0,1-30.21,24.72c-6.61,1.65-13.87,2.39-19.91-3-1.38-1.23-3.56-1.55-6.17-2.6-1.93,7.43-3.83,14.37-5.53,21.35-2.77,11.41-5.25,22.89-8.17,34.26-1.51,5.89-6.35,10.39-9.8,10-3.95-.44-9.54-7.31-9.2-12.95a99.43,99.43,0,0,1,3.31-18.93c2.51-9.71,5.64-19.25,8.38-28.9.39-1.37.06-2.94.06-5.78-5.53,2.82-10,6-15.05,7.52-10.57,3.28-12.17,12.15-14.82,20.88-5.07,16.66-10.34,33.48-24.66,44.94-12.74,10.21-27.16,14.21-43.17,8.57-8.23-2.9-12-14-8.33-22.67,4.92-11.69,13.87-20,22.93-28.32l4-2.95h0Zm-55.17-75.31c-1.4.77-3.6,1.23-4.06,2.38a44.7,44.7,0,0,0-3,10.86c-.93,7.62-1.89,15.31-1.82,23,.05,4.89,3.72,7.75,8.82,8.14l7.18,0c1.25-.39,2.48-.8,3.74-1.14,22.91-6.21,32.38-26.42,35.41-44.95l.91-4-24.26,2.68-5.91.42-8.09.55-1.9.23-3.06.83-1.93.51ZM1175.68,623c2.75,1.18,4.78,2.45,7,2.93,11.69,2.54,19.61-3.37,26.46-11.9,2.59-3.22,3.13-5.63.06-9-1.79-2-2.57-5.17-3-7.94-.81-4.92,2.7-7.84,5.86-10.86,3.73-3.56,3.3-7.78-1-10.72-3.88-2.67-7.87-2.93-12.25-1-9.87,4.26-14.06,13-18,22.07-2.08,4.86-3,9.34.18,14.35,1,1.56-.24,4.88-1.08,7.16C1179.34,619.53,1177.67,620.7,1175.68,623Zm-152.25-64.68,1.74,1.27c7.41-5.7,15-11.15,22.18-17.14,11.29-9.44,20.69-20.39,25.57-34.64,1.85-5.42-.35-8.74-5.74-7.27a29.55,29.55,0,0,0-11.37,6.43c-9.85,8.81-16.94,19.81-23,31.45C1029.45,544.89,1026.54,551.64,1023.43,558.28Zm75.24,101.9c-2.76,1.07-4.34,1.38-5.56,2.22-3.4,2.36-7,4.56-9.89,7.5-7.34,7.6-14.51,15.38-21.3,23.46-2.5,3-3.57,7.85-.22,10.4,2.33,1.77,6.76,1.35,10.14,1,2.09-.24,4.22-2,5.9-3.51C1089.33,690.56,1094.41,676.54,1098.67,660.18ZM1266.14,607a59.49,59.49,0,0,0,25.93-10.24,28.83,28.83,0,0,0,7.7-7.51c3.65-5.66.71-10.83-6-11.83-9.34-1.41-17,4.4-22.93,13C1267.74,594.93,1264.28,600,1266.14,607Zm-337.43,2.55c8-7.44,14.28-14.71,18.51-23.66,3.1-6.54,2.31-13.54-2.12-16.26s-10.9.13-15.07,6.29l-.83,1.24c-5,7.46-4.38,15.78-3.43,24C926.07,603.76,927.51,606.21,928.71,609.52Zm-73.32,5c9.52-6.46,17.5-13.79,22.66-23.64,1.34-2.55,1.2-6.17.88-9.21-.42-4-5.67-6.81-9.47-5.58C854.94,580.78,849.72,602.34,855.39,614.54Z" transform="translate(-583.88 -478.74)"/></svg>