<svg id="圖層_7" data-name="圖層 7" xmlns="http://www.w3.org/2000/svg" viewBox="0 0 977.76 977.72"><defs><style>.cls-1{fill:#986252;}.cls-2{fill:#f8b191;}.cls-3{fill:#020201;}.cls-4{fill:#fefefe;}.cls-5{fill:#715027;}.cls-6{fill:#422d14;}.cls-7{fill:#020202;}.cls-8{fill:#040403;}.cls-9{fill:#040303;}</style></defs><path class="cls-1" d="M958.18,41c4.7.55,9.39,1.26,14.11,1.64A488.81,488.81,0,0,1,1417.88,591.4c-20.58,163.84-124,307.35-273,379a488,488,0,0,1-269.66,44.81c-166-20.11-308.45-121.18-382-271.34a472,472,0,0,1-44.77-148.55c-1.57-12.25-2.42-24.59-3.64-36.88a10.37,10.37,0,0,0-.85-2.37V503.58a21.39,21.39,0,0,0,.88-3.27c1.62-15.12,2.57-30.34,4.87-45.36a482.09,482.09,0,0,1,50.62-153.18,488.74,488.74,0,0,1,393-259.12c4.71-.39,9.4-1.09,14.1-1.65Zm427.39,488.79c.51-249.79-201-447.32-441-452.74C684,71.16,484.79,279.45,480,519c-5.2,259.85,202.34,458.43,441.57,463.7C1181.39,988.45,1387,778.15,1385.57,529.79Z" transform="translate(-444 -41)"/><path class="cls-2" d="M1385.57,529.79c1.41,248.36-204.18,458.66-464,452.93C682.33,977.45,474.79,778.87,480,519c4.8-239.57,204-447.86,464.56-442C1184.58,82.47,1386.08,280,1385.57,529.79ZM1249.68,694v-4.9q0-147.07,0-294.16c0-11.26-5-16.3-16.21-16.3q-93,0-186,0c-5.4,0-10.76-.34-14.13,7V266.17c0-11-5.1-16.06-16-16.06H829c-9.25,0-12.08,2.87-12.08,12.2V442.09c-3.56-6.81-8.89-9.19-16.1-9.18q-94.82.15-189.62.06c-9.68,0-12.45,2.73-12.45,12.29V694.87c-7.69,3.73-9.94,7.26-9.95,15.35q0,22.17,0,44.35c0,9.67,2.73,12.44,12.28,12.44H1246c10.15,0,12.71-2.59,12.71-12.92V707C1258.73,698.74,1257.44,696.87,1249.68,694Z" transform="translate(-444 -41)"/><path class="cls-3" d="M1249.68,694c7.76,2.85,9,4.72,9,13v47.06c0,10.33-2.56,12.92-12.71,12.92H601.12c-9.55,0-12.28-2.77-12.28-12.44q0-22.17,0-44.35c0-8.09,2.26-11.62,9.95-15.35V445.26c0-9.56,2.77-12.29,12.45-12.29q94.8,0,189.62-.06c7.21,0,12.54,2.37,16.1,9.18V262.31c0-9.33,2.83-12.2,12.08-12.2h188.27c10.91,0,16,5.11,16,16.06V385.58c3.37-7.3,8.73-7,14.13-7q93,.08,186,0c11.2,0,16.21,5,16.21,16.3q0,147.09,0,294.16ZM916.54,753.46a28,28,0,0,0,4.73.79q159.74,0,319.47,0c1.6,0,3.21-.14,4.94-.22V708.23h-92.94c-1.21,0-2.42-.07-3.62-.07H607c-1.44,0-2.88.15-4.26.22v45.09Zm103.34-58.82V263.85H830.49V688c0,6.61,0,6.61,6.68,6.61h182.71Zm216.19-.11v-302H1046.93v302Zm-432.88-.06V446.7H612.25V694.47Z" transform="translate(-444 -41)"/><path class="cls-4" d="M1019.88,694.64H837.17c-6.66,0-6.67,0-6.68-6.61V263.85h189.39ZM912.76,526.48V659.87l-30.41,4v6.45H977.3v-6.46l-28.21-3.92c-.2-3.78-.54-7.22-.52-10.66q.25-67.61.61-135.21c0-5.75-1.32-6.92-7-5.65-10.42,2.36-20.84,4.67-31.26,7-7.71,1.75-15.41,3.57-22.89,5.31v7.93Z" transform="translate(-444 -41)"/><path class="cls-4" d="M1236.07,694.53H1046.93v-302h189.14Zm-117.34-51.92c2.75-2.44,4.44-4,6.23-5.52,12.77-10.57,25.88-20.77,38.22-31.82,7.9-7.08,15.64-14.73,21.73-23.34,10.82-15.29,6.73-44.88-20.26-51.78a60.84,60.84,0,0,0-36.48,1.55c-10.58,3.85-18.92,10.41-23.3,21.23-1.12,2.77-1.1,4.88,2.24,6.08.62-.68,1.21-1.36,1.82-2,6.21-6.63,12.66-12.89,21.67-15.71,17.19-5.38,30.26,4.23,30.38,22.24.09,13.7-5.38,25.26-13.93,35.38-13.42,15.87-27.28,31.37-40.94,47-.77.89-2,1.84-2,2.8-.21,5.2-.1,10.4-.1,15.42h89.2V642.61Z" transform="translate(-444 -41)"/><path class="cls-4" d="M803.19,694.47H612.25V446.7H803.19Zm-118-94.82c2.74,0,5.13,0,7.51,0,12.79.21,22.24,7.29,25.39,19.69a63.36,63.36,0,0,1,1.85,15.16c.12,19.91-11.62,30.61-31.53,29.31-2.55-.17-3.78-1-4.11-3.58-.57-4.63-1.26-9.25-2.21-13.82a47.06,47.06,0,0,0-3.12-10.74c-2.36-4.91-9.24-6.61-15.09-4.49-3.64,1.32-7,6.48-5.76,11.78,2.9,12.58,10.24,20.68,22.25,24.38a69.37,69.37,0,0,0,44.84-1.05c14.66-5.31,24.06-15.44,24.5-31.8.4-14.86-5-26.88-19-33.66-5-2.45-10.54-3.86-15.58-5.65,5.23-2.32,11.09-4.24,16.25-7.32,16.39-9.79,19.5-32.82,6.44-46.4-6.73-7-15.43-9.73-24.87-10.28C694.12,530.09,678,535,667.49,552a5.93,5.93,0,0,0-.39,1.19l2.45,2.34c6.08-4.43,11.35-9.4,17.54-12.57,13.19-6.76,27.13.6,29.74,15.13a39.79,39.79,0,0,1,.39,9c-.83,16.17-10.62,25.42-26.72,25.44h-5.35Z" transform="translate(-444 -41)"/><path class="cls-5" d="M916.54,753.46H602.71V708.37c1.38-.07,2.82-.22,4.26-.22h542.15c1.2,0,2.41,0,3.62.07-11.85,2.39-23.67,4.93-35.54,7.14-31.66,5.9-63.34,11.62-95,17.49q-40.41,7.49-80.79,15.18C933.08,749.64,924.83,751.64,916.54,753.46Z" transform="translate(-444 -41)"/><path class="cls-6" d="M916.54,753.46c8.29-1.82,16.54-3.82,24.87-5.42q40.37-7.71,80.79-15.18c31.66-5.87,63.34-11.59,95-17.49,11.87-2.21,23.69-4.75,35.54-7.14h92.94v45.82c-1.73.08-3.34.22-4.94.22q-159.73,0-319.47,0A28,28,0,0,1,916.54,753.46Z" transform="translate(-444 -41)"/><path class="cls-7" d="M912.76,526.48l-24.69,2.19v-7.93c7.48-1.74,15.18-3.56,22.89-5.31,10.42-2.37,20.84-4.68,31.26-7,5.64-1.27,7-.1,7,5.65q-.36,67.61-.61,135.21c0,3.44.32,6.88.52,10.66l28.21,3.92v6.46H882.35v-6.45l30.41-4Z" transform="translate(-444 -41)"/><path class="cls-8" d="M1118.73,642.61h74.43v21.55H1104c0-5-.11-10.22.1-15.42,0-1,1.28-1.91,2-2.8,13.66-15.66,27.52-31.16,40.94-47,8.55-10.12,14-21.68,13.93-35.38-.12-18-13.19-27.62-30.38-22.24-9,2.82-15.46,9.08-21.67,15.71-.61.65-1.2,1.33-1.82,2-3.34-1.2-3.36-3.31-2.24-6.08,4.38-10.82,12.72-17.38,23.3-21.23a60.84,60.84,0,0,1,36.48-1.55c27,6.9,31.08,36.49,20.26,51.78-6.09,8.61-13.83,16.26-21.73,23.34-12.34,11.05-25.45,21.25-38.22,31.82C1123.17,638.58,1121.48,640.17,1118.73,642.61Z" transform="translate(-444 -41)"/><path class="cls-9" d="M685.15,599.65v-7.12h5.35c16.1,0,25.89-9.27,26.72-25.44a39.79,39.79,0,0,0-.39-9c-2.61-14.53-16.55-21.89-29.74-15.13-6.19,3.17-11.46,8.14-17.54,12.57l-2.45-2.34a5.93,5.93,0,0,1,.39-1.19c10.55-17,26.63-21.91,45.43-20.81,9.44.55,18.14,3.28,24.87,10.28,13.06,13.58,10,36.61-6.44,46.4-5.16,3.08-11,5-16.25,7.32,5,1.79,10.56,3.2,15.58,5.65,13.94,6.78,19.39,18.8,19,33.66-.44,16.36-9.84,26.49-24.5,31.8a69.37,69.37,0,0,1-44.84,1.05c-12-3.7-19.35-11.8-22.25-24.38-1.22-5.3,2.12-10.46,5.76-11.78,5.85-2.12,12.73-.42,15.09,4.49a47.06,47.06,0,0,1,3.12,10.74c1,4.57,1.64,9.19,2.21,13.82.33,2.62,1.56,3.41,4.11,3.58,19.91,1.3,31.65-9.4,31.53-29.31a63.36,63.36,0,0,0-1.85-15.16c-3.15-12.4-12.6-19.48-25.39-19.69C690.28,599.62,687.89,599.65,685.15,599.65Z" transform="translate(-444 -41)"/></svg>